<svg width="167" height="62" viewBox="0 0 167 62" fill="none" xmlns="http://www.w3.org/2000/svg" alt="Montre femme, homme et enfant">
<path d="M69.3245 26.9383V24.8166H71.2114V17.2268H69.4026V15.149H73.4149L73.6058 16.7019C73.9357 16.1464 74.4078 15.6907 74.9726 15.3828C75.5375 15.0749 76.1741 14.9261 76.8157 14.9521C78.6809 14.9521 79.9561 15.6214 80.5461 17.3581C80.9153 16.6163 81.4862 15.9958 82.1921 15.569C82.8979 15.1422 83.7096 14.9267 84.5324 14.9477C87.9591 14.9477 89.4643 17.0256 89.4643 20.3415V24.8123H91.3295V26.9383H85.4519V24.8123H87.187V20.3284C87.187 18.513 86.48 17.1787 84.4977 17.1787C82.7279 17.1787 81.5914 18.6573 81.5914 20.3721V24.8123H83.3612V26.9383H77.462V24.8123H79.2534V20.3765C79.2534 18.5611 78.3859 17.1831 76.4209 17.1831C74.6512 17.1612 73.5668 18.6398 73.5668 20.3765V24.8166H75.3582V26.9426L69.3245 26.9383ZM98.6601 14.8734C102.347 14.8734 104.776 17.4762 104.776 21.0852C104.776 24.5848 102.304 27.2095 98.6601 27.2095C95.0165 27.2095 92.5874 24.5848 92.5874 21.0852C92.57 17.4981 95.0946 14.8734 98.6601 14.8734ZM98.6818 17.0169C96.4392 17.0169 94.9081 18.6879 94.9081 21.0764C94.9081 23.2637 96.3959 24.9697 98.6601 24.9697C100.924 24.9697 102.434 23.2768 102.46 21.0764C102.464 18.6792 100.855 17.0081 98.6862 17.0081L98.6818 17.0169ZM110.858 24.8166H112.697V26.9426H106.667V24.8166H108.554V17.205H106.706V15.1052H110.654L110.819 16.7063C111.946 15.3939 112.944 14.9565 114.454 14.9565C117.945 14.9565 119.598 17.0125 119.598 20.5646V24.8385H121.485V26.9645H115.672V24.821H117.251V20.5602C117.251 18.1717 116.514 17.1481 114.215 17.1481C112.254 17.1481 110.84 18.4605 110.84 20.6827L110.858 24.8166ZM126.573 11.7806V15.1708H130V17.2006H126.556V22.9487C126.556 24.2173 127.05 24.9785 128.23 24.9785C128.74 24.968 129.24 24.8377 129.692 24.5979L130.351 26.5533C129.652 26.8968 128.89 27.089 128.113 27.1176C125.61 27.1876 124.244 25.6609 124.244 22.9618V17.1919H121.979V15.1796H124.244V12.0518L126.573 11.7806ZM133.652 17.1962H131.865V15.0965H135.665L135.947 16.3388C136.749 15.1927 138.116 14.8602 139.417 14.8602C140.473 14.8509 141.503 15.1955 142.345 15.8401L141.282 17.8699C140.691 17.4251 139.976 17.1815 139.239 17.1744C137.07 17.2181 136.007 18.2242 136.007 20.4902V24.8647H137.799V26.9426H131.743V24.8604H133.652V17.1962ZM154.278 25.171C153.076 26.5271 151.046 27.2007 149.246 27.2007C145.472 27.2007 142.991 24.6941 142.991 20.9714C142.991 17.4368 145.542 14.8471 149.129 14.8471C152.833 14.8471 155.405 17.2093 154.959 21.9601H145.372C145.563 23.7099 147.142 25.0222 149.32 25.0222C150.521 25.0222 152.009 24.5848 152.746 23.7317L154.278 25.171ZM152.716 19.9915C152.573 18.0361 151.181 16.96 149.203 16.96C148.312 16.9254 147.438 17.2113 146.737 17.7667C146.036 18.322 145.554 19.1106 145.377 19.9915H152.716ZM166.362 18.8542H164.397L164.254 17.135C163.777 16.8725 162.463 16.7544 161.912 16.7544C160.45 16.7107 159.266 17.3493 159.309 18.4473C159.331 19.4535 160.611 19.7597 161.912 19.8778C164.094 20.1228 167.043 20.5602 167 23.6224C166.931 25.9846 164.788 27.2751 161.951 27.2751C160.18 27.3066 158.44 26.8089 156.95 25.8446L156.993 22.7387H159.045L159.14 24.4317C160.03 24.864 161.007 25.0841 161.994 25.0747C162.992 25.0747 164.64 24.9085 164.71 23.5218C164.731 22.4281 163.504 22.0432 161.76 21.877C159.374 21.5707 157.015 20.9714 157.015 18.4386C156.993 15.8139 159.704 14.7203 161.851 14.7377C163.416 14.7286 164.963 15.0724 166.38 15.7439L166.362 18.8542Z" fill="#111111"></path>
<path d="M88.0546 48.8809V49.9745H84.7493L84.6755 47.3498C83.6952 49.3314 81.5654 50.1932 79.6872 50.1932C76.3039 50.1932 73.5451 47.7654 73.5451 43.8502C73.5451 39.935 76.3125 37.5596 79.6872 37.5596C81.6695 37.5596 83.8514 38.522 84.7016 40.4555V37.7346H88.0286V38.8501H85.825V48.8765L88.0546 48.8809ZM74.6946 43.8764C74.6946 47.1223 76.9719 49.0821 79.735 49.0821C83.0142 49.0821 84.7016 46.5317 84.7233 43.9333C84.7493 41.2648 83.0576 38.7101 79.6829 38.7101C76.9155 38.7101 74.6946 40.6655 74.6946 43.8808V43.8764ZM92.9995 48.8809H95.1033V49.9745H89.6508V48.8809H91.8544V38.8195H89.6508V37.739H92.9561L92.9995 40.2456C93.4255 39.4075 94.0752 38.7062 94.8754 38.2208C95.6756 37.7354 96.5943 37.4852 97.528 37.4984C100.911 37.4984 102.764 39.5019 102.764 42.9228V48.8634H104.976V49.957H99.5928V48.8634H101.601V42.9578C101.601 40.0837 100.126 38.627 97.489 38.627C96.8975 38.6199 96.3106 38.7324 95.763 38.9578C95.2153 39.1832 94.718 39.517 94.3003 39.9394C93.8827 40.3619 93.5532 40.8644 93.3312 41.4174C93.1093 41.9703 92.9995 42.5625 93.0082 43.159L92.9995 48.8809ZM120.947 48.8809V49.9745H117.668L117.568 47.2492C116.614 49.2308 114.51 50.1713 112.601 50.1451C109.218 50.1451 106.485 47.7697 106.485 43.8545C106.485 39.9393 109.201 37.564 112.558 37.564C114.51 37.564 116.744 38.5045 117.572 40.4862V33.6838H115.382V32.612H118.735V48.8852L120.947 48.8809ZM107.63 43.8502C107.63 47.0961 109.908 48.999 112.671 48.999C115.881 48.999 117.564 46.6236 117.564 43.7495C117.564 40.9761 115.777 38.6489 112.597 38.6489C109.864 38.6489 107.63 40.5562 107.63 43.8545V43.8502Z" fill="#0092A0"></path>
<path d="M143.047 34.3224L142.969 38.0583H140.67L140.571 35.5079C139.609 35.0187 138.541 34.7796 137.465 34.8124C133.04 34.8124 131.002 38.1064 131.054 41.3742C131.097 44.4932 132.889 47.7609 137.465 47.7609C139.168 47.7492 140.803 47.0863 142.041 45.9061L143.876 47.6778C142.157 49.3496 139.852 50.2666 137.465 50.2282C131.297 50.2282 128.508 45.9411 128.486 41.3917C128.464 36.8422 131.375 32.3277 137.465 32.3277C139.493 32.3479 141.456 33.0499 143.043 34.3224H143.047ZM162.879 41.3829C162.853 45.8887 160.09 50.3507 154.169 50.3507C148.248 50.3507 145.398 45.9324 145.398 41.3829C145.398 36.1116 148.973 32.3189 154.204 32.3189C160.003 32.3758 162.888 36.7809 162.866 41.3829H162.879ZM154.204 34.6986C150.144 34.6986 147.988 37.6952 147.988 41.3829C147.962 44.6988 149.897 47.9009 154.178 47.9009C158.459 47.9009 160.251 44.5588 160.294 41.3829C160.329 38.1151 158.442 34.7774 154.208 34.6986H154.204Z" fill="#111111"></path>
<path fill-rule="evenodd" clip-rule="evenodd" d="M41.0109 0V4.87321C37.0757 2.75052 32.6861 1.62879 28.2234 1.60545C23.7589 1.62942 19.3678 2.75268 15.4317 4.87758V0H14.0133C9.67559 0 6.07533 5.74811 4.11471 15.7483C1.42332 20.3656 0.00421143 25.6243 0.00421143 30.9803C0.00421143 36.3363 1.42332 41.5951 4.11471 46.2124C6.07967 56.23 9.66692 61.9606 14.0133 61.9606H15.436V57.1312C19.3673 59.2714 23.7646 60.392 28.2321 60.392C32.6996 60.392 37.097 59.2714 41.0282 57.1312V62.0044H42.451C46.7886 62.0044 50.3802 56.2431 52.3582 46.2124C53.7122 43.8418 54.734 41.2935 55.3946 38.6401H55.6114C56.074 38.6344 56.5308 38.5366 56.9558 38.3525C57.3808 38.1683 57.7655 37.9013 58.0879 37.5668C58.4103 37.2323 58.6641 36.8369 58.8346 36.4032C59.0051 35.9696 59.089 35.5063 59.0816 35.0399V26.9645C59.0955 26.022 58.7378 25.1124 58.0871 24.4357C57.4365 23.759 56.546 23.3705 55.6114 23.3555H55.3946C54.7344 20.7048 53.7125 18.1593 52.3582 15.792C50.3629 5.76124 46.7756 0 42.4336 0H41.0109Z" fill="#ECECEC"></path>
<path fill-rule="evenodd" clip-rule="evenodd" d="M43.8668 7.34916V3.54333C45.8621 4.91693 48.1177 9.06397 49.5795 16.5881L49.6229 16.8506L49.753 17.0825C51.2495 19.5918 52.328 22.3316 52.9455 25.1928L53.1971 26.3608H55.5958C55.6763 26.3602 55.756 26.3759 55.8303 26.4071C55.9046 26.4382 55.9719 26.4842 56.0282 26.5422C56.0845 26.6002 56.1286 26.669 56.1579 26.7446C56.1872 26.8201 56.2011 26.9009 56.1988 26.982V35.0398C56.2011 35.1209 56.1872 35.2017 56.1579 35.2773C56.1286 35.3528 56.0845 35.4217 56.0282 35.4796C55.9719 35.5376 55.9046 35.5836 55.8303 35.6147C55.756 35.6459 55.6763 35.6616 55.5958 35.661H53.1971L52.9455 36.829C52.3255 39.6881 51.2471 42.426 49.753 44.935L49.6229 45.1668L49.5795 45.4293C48.1351 52.9535 45.8665 57.1005 43.8668 58.4741V51.9561L41.6719 53.3691C37.6697 55.9927 32.9987 57.3892 28.2252 57.3892C23.4517 57.3892 18.7807 55.9927 14.7784 53.3691L12.5792 51.9473V58.4654C10.5839 57.0918 8.32831 52.9447 6.86652 45.4206L6.82314 45.1581L6.69301 44.9394C4.19334 40.7291 2.87317 35.9138 2.87317 31.0065C2.87317 26.0993 4.19334 21.284 6.69301 17.0737L6.82314 16.855L6.86652 16.5925C8.31964 9.05522 10.5709 4.91256 12.5792 3.54333V10.0614L14.7481 8.61777C18.7503 5.99408 23.4213 4.59758 28.1948 4.59758C32.9683 4.59758 37.6393 5.99408 41.6416 8.61777L43.8668 10.0614V7.34916Z" fill="#111111"></path>
<path fill-rule="evenodd" clip-rule="evenodd" d="M44.3309 27.7563L29.1708 33.5963L28.0257 34.0337L26.9543 33.4213L15.3467 26.6845L17.9493 21.8463L28.4898 27.9706L42.5091 22.5637C43.3829 24.187 43.9963 25.9395 44.3266 27.7563H44.3309ZM9.29562 19.9915C15.1168 9.1121 28.3553 5.18378 38.7917 11.2425C42.5526 13.4285 45.5855 16.6912 47.5061 20.6171L42.5091 22.5637C41.0444 19.8648 38.8694 17.626 36.2238 16.0938C28.3293 11.5093 18.3353 14.4753 13.9369 22.6993C9.53853 30.9234 12.384 41.3348 20.2786 45.9061C28.1731 50.4775 38.1714 47.5247 42.5655 39.3094C44.4473 35.777 45.069 31.7 44.3266 27.7607L49.3626 25.8096C50.6075 31.2917 49.8369 37.0431 47.1938 41.9953C41.3726 52.8747 28.1081 56.8031 17.6717 50.7444C7.23523 44.6856 3.47014 30.8928 9.29562 19.9915Z" fill="white"></path>
<path opacity="0.08" d="M28.0213 34.0424L15.3466 26.6845L5.37 42.3453C5.77154 43.2453 6.22338 44.1216 6.72335 44.97L6.85348 45.1887L6.90553 45.4512C8.34563 52.9622 10.5665 57.1005 12.5445 58.4697V51.9517L14.748 53.369C17.3378 55.0912 20.2337 56.2915 23.2759 56.9037L43.7236 28.0187L28.0213 34.0424Z" fill="black"></path>
<defs>
<clipPath id="clip0">
<rect width="167" height="62" fill="white"></rect>
</clipPath>
</defs>
</svg>