<svg width="166.923" xmlns="http://www.w3.org/2000/svg" height="28" style="-webkit-print-color-adjust:exact" fill="none"><g style="fill:#7A8087"><path d="M95.838 8.559c-.688-1.644-1.719-3.174-3.036-4.478-1.317-1.304-2.806-2.324-4.524-3.004C86.56.34 84.67 0 82.78 0c-2.634 0-5.154.737-7.388 2.04-.744.454-1.432.964-2.061 1.531-1.432 1.303-2.635 2.834-3.437 4.591-.858 1.814-1.26 3.798-1.26 5.781 0 3.344 1.203 6.632 3.437 9.183 2.176 2.493 5.211 4.194 8.533 4.704.687.113 1.374.17 2.119.17h.057c1.89 0 3.78-.397 5.498-1.077 1.661-.68 3.207-1.7 4.524-3.004 1.317-1.304 2.348-2.777 3.036-4.478.744-1.7 1.088-3.571 1.088-5.441 0-1.87-.344-3.741-1.088-5.441Zm-.974 10.486c-.688 1.53-1.604 2.947-2.806 4.137-1.203 1.19-2.635 2.154-4.181 2.778-1.604.68-3.322 1.02-5.097 1.02h-.057c-.63 0-1.317-.057-1.947-.17-3.036-.454-5.899-1.984-7.903-4.365-2.062-2.38-3.207-5.384-3.207-8.502 0-1.87.4-3.684 1.145-5.384.745-1.644 1.832-3.061 3.149-4.251.573-.51 1.26-1.021 1.89-1.417C77.912 1.644 80.26.964 82.723.964c1.775 0 3.493.34 5.097 1.02 1.546.68 2.978 1.587 4.18 2.777 1.203 1.19 2.176 2.607 2.806 4.138.688 1.587 1.032 3.287 1.032 5.044.057 1.814-.287 3.515-.974 5.102ZM82.608 1.7c-2.405 0-4.639.681-6.586 1.814-.63.397-1.26.85-1.832 1.36.515-.113 2.634-.453 4.409-.453 2.005 0 4.238.283 5.727 1.134 1.604.85 2.692 1.87 2.692 2.55 0 .17-.115.794-.63 1.417l-.573.68s.172.114.802-.17c.401-.17 1.088-.736 1.718-.736 1.031 0 1.145.793 1.145.793s.344-.623.802-.623c.458 0 2.692.68 3.437 2.38.629 1.474.687 2.494.687 2.948 0 .453-.172.453-.172.453-.058 0-.115.057-.458-.397-.287-.453-.917-1.247-3.207-1.247-2.291 0-4.238.284-5.326.51-1.088.227-1.661.454-2.291 0-.286-.226-.401-.907-.401-.907s-2.864.341-5.727 1.758c-3.092 1.53-3.78 2.834-3.78 2.834s1.489-1.077 3.608-1.701c2.119-.68 3.15-.397 3.15-.397l-.573.567c-.229.227-1.603 1.474-2.519 2.211-.86.737-.974.793-.974.793s2.577-.85 3.665-1.417c1.203-.567 1.833-.907 1.833-.907s-1.489 1.757-1.489 5.158c0 1.701.344 3.118.859 4.195.286.056.572.056.859.113.286 0 .63.057.973.057h.115c6.929 0 12.599-5.498 12.599-12.3 0-6.802-5.555-12.47-12.542-12.47Zm8.934 12.583c-.172 0-.63 0-1.603.114-.917.056-2.119.283-3.666.623-1.603.34-1.546.454-1.89.454-.4 0-.457-.34-.457-.397 0-.057.229-.283 1.832-.567 1.661-.283 3.78-.51 4.639-.51 1.26 0 1.317.283 1.317.283h-.172Zm-1.202-3.514c.057-.113.343-.397.572-.567.23-.113.287-.17.287-.17s-.23-.113-.516-.113c-.286 0-.458.113-.63.227-.171.17-.401.396-.458.567-.057.113-.057.17-.057.17s.172.056.344.056c.171 0 .4-.056.458-.17Zm-11.111.17s.974 1.361 2.234 1.361c1.088 0 1.374-1.417 1.374-1.417s-.744.736-1.775.736-1.833-.68-1.833-.68Zm4.353-.68c.229.34.286.624.286.624s1.375-.114 1.375-1.247c0-1.134-1.26-2.268-3.494-2.268-2.233 0-4.295.737-5.383 1.304-1.146.567-1.833 1.077-1.833 1.077s1.547-.623 2.864-.85c1.03-.17 1.317-.227 1.718-.227s.687.057.687.057-.115.226-.115.51c0 .283.115.567.23.793.114.227.343.397.343.397s-.114-.283-.114-.68c0-.397.057-.68.171-.964.115-.283.287-.34.344-.396h.172s-.229.34-.229.907c0 .566.286.963.859.963s.687-.34.802-.51c.057-.17.114-.453.114-.623v-.114s.172 0 .172.454c0 .453-.229.906-.515 1.19-.287.283-.687.34-.687.34h.171c.172 0 .745-.057 1.203-.567.343-.397.458-.68.458-.68s.229.283.401.51Zm18.956-3.571c0-.226.229-.397.401-.397h2.634c.229 0 .401.227.401.397v5.555h6.357V6.688c0-.226.172-.397.401-.397h2.634c.229 0 .401.227.401.397v14.624c0 .226-.229.397-.401.397h-2.634c-.229 0-.401-.227-.401-.397v-5.838h-6.357v5.781c0 .227-.172.397-.401.397h-2.634c-.229 0-.401-.227-.401-.397V6.688Zm15.233 14.454 6.987-14.851c.057-.113.229-.226.401-.226h.229c.172 0 .287.113.401.226l6.987 14.851c.115.283-.057.567-.401.567h-2.463c-.4 0-.572-.114-.801-.567l-.802-1.757h-6.071l-.801 1.757c-.115.283-.344.51-.802.51h-2.52c-.286.057-.516-.227-.344-.51Zm9.163-4.705-1.717-3.627-1.662 3.627h3.379Zm5.498-9.635c-.114-.284.115-.511.401-.511h2.635c.172 0 .343.171.4.284l1.947 7.482h.115l3.436-7.766c.058-.113.229-.226.401-.226h.401c.229 0 .344.113.401.226l3.436 7.766h.115l1.947-7.482c.057-.17.229-.284.401-.284h2.634c.286 0 .515.227.401.511l-4.238 14.85c-.057.17-.229.283-.401.283h-.343c-.173 0-.287-.113-.401-.226l-4.181-9.013h-.057l-4.067 9.013c-.057.113-.228.226-.4.226h-.344c-.171 0-.343-.113-.401-.283l-4.238-14.85Zm21.304 0c0-.284.23-.511.516-.511h2.634c.287 0 .515.227.515.511v5.781l4.926-6.121c.114-.114.286-.227.4-.227h2.807c.4 0 .63.51.4.793l-5.211 6.462 5.67 7.312c.229.34 0 .793-.401.793H162.9c-.173 0-.344-.113-.401-.17l-5.155-6.915v6.688c0 .284-.228.511-.515.511h-2.635c-.286 0-.515-.227-.515-.511l.057-14.396ZM.255 6.632c0-.227.229-.397.516-.397h6.185c3.15 0 5.67 1.814 5.67 4.081 0 1.7-1.833 2.947-3.093 3.514 1.374.51 3.551 1.587 3.551 3.571 0 2.494-2.635 4.251-5.785 4.251H.714c-.287 0-.516-.227-.516-.397L.255 6.632ZM6.44 12.47c1.031 0 1.833-.681 1.833-1.587 0-.907-.859-1.474-1.833-1.474H4.379v3.117l2.061-.056Zm.344 6.008c1.031 0 1.89-.68 1.89-1.587 0-.907-1.145-1.531-2.176-1.531H4.379v3.174l2.405-.056ZM17.551 6.632c0-.227.229-.397.515-.397h10.938c.287 0 .516.227.516.397v2.38c0 .227-.229.397-.516.397h-7.33v2.721h6.013c.287 0 .516.226.516.396v2.381c0 .227-.229.397-.516.397h-6.013v3.004h7.33c.287 0 .516.226.516.396v2.381c0 .227-.229.397-.516.397H18.066c-.286 0-.515-.227-.515-.397V6.632Zm16.894 0c0-.227.229-.397.515-.397h10.939c.286 0 .515.227.515.397v2.38c0 .227-.229.397-.515.397h-7.331v2.721h6.014c.286 0 .515.226.515.396v2.381c0 .227-.229.397-.515.397h-6.014v3.004h7.331c.286 0 .515.226.515.396v2.381c0 .227-.229.397-.515.397H34.96c-.286 0-.515-.227-.515-.397V6.632Zm15.749 0c0-.227.229-.397.515-.397h7.904c3.149 0 5.784 2.154 5.784 4.761 0 2.04-1.604 3.684-3.894 4.421l3.607 5.611c.172.284 0 .624-.458.624h-3.493c-.229 0-.344-.114-.401-.227l-3.494-5.838h-1.832v5.611c0 .227-.229.397-.515.397h-3.15c-.287 0-.516-.227-.516-.397l-.057-14.566Zm8.075 6.178c1.088 0 2.004-.85 2.004-1.757 0-.907-.916-1.701-2.004-1.701h-3.895v3.458h3.895Z" style="fill:#7A8087;fill-opacity:1" class="fills"/></g></svg>