<svg width="147.553" xmlns="http://www.w3.org/2000/svg" height="40" style="-webkit-print-color-adjust:exact" fill="none"><g style="fill:#7A8087"><path d="M26.315 11.675h-1.401v6.741h.954c.609 0 .812-.04.914-.081.589-.223.873-.731.873-1.462v-3.594c.02-1.32-.731-1.604-1.34-1.604ZM26.802 22.051c-.162-.061-.447-.102-.914-.102h-.954v6.741h1.401c.63 0 1.381-.264 1.381-1.563v-3.614c-.041-.752-.325-1.239-.914-1.462Z" style="fill:#7A8087;fill-opacity:1" class="fills"/><path fill-rule="evenodd" clip-rule="evenodd" d="M0 20C0 8.954 8.954 0 20 0s20 8.954 20 20-8.954 20-20 20S0 31.046 0 20Zm15.086-3.858h3.736v-3.33c0-3.431-1.665-5.096-5.096-5.096-3.432 0-5.097 1.665-5.097 5.096v2.254c0 2.213 1.097 4.122 3.269 5.665 2.153 1.563 3.209 2.863 3.209 4.02v2.741c0 1.3-.752 1.564-1.381 1.564-.63 0-1.381-.284-1.381-1.564v-3.289H8.629v3.289c0 3.432 1.665 5.117 5.097 5.117 3.411 0 5.076-1.685 5.076-5.117v-3.025c0-2.152-1.096-4.02-3.269-5.563-2.152-1.544-3.208-2.823-3.208-3.879v-2.172c0-1.3.731-1.564 1.36-1.564h.021c.629.021 1.38.285 1.38 1.564v3.289Zm14.762 3.878c1.035-.528 1.543-1.563 1.543-3.167h.02v-3.594c0-3.432-1.543-5.117-4.731-5.117h-5.462v24.081h5.239c3.309 0 4.934-1.665 4.934-5.096v-3.614c0-1.604-.508-2.64-1.543-3.168l-.305-.162.305-.163Z" style="fill:#7A8087;fill-opacity:1" class="fills"/><path d="M48.609 10.213c0-2.457 1.239-3.695 3.696-3.695 2.456 0 3.695 1.238 3.695 3.695v2.437h-2.843v-2.437c0-.629-.284-.954-.832-.974h-.02c-.549 0-.833.324-.833.974v1.523c0 .69.731 1.564 2.193 2.619 1.563 1.117 2.355 2.457 2.355 4v2.132c0 2.477-1.238 3.716-3.695 3.716s-3.696-1.239-3.696-3.716v-2.436h2.843v2.436c0 .65.284.975.853.975.568 0 .832-.325.832-.975v-1.908c0-.752-.731-1.665-2.193-2.721-1.563-1.117-2.355-2.477-2.355-4.061v-1.584Z" style="fill:#7A8087;fill-opacity:1" class="fills"/><path fill-rule="evenodd" clip-rule="evenodd" d="m66.091 23.939-.812-6.152-1.726-11.005h-3.695l-1.746 11.025-.812 6.132h2.862l.488-3.553h2.091l.467 3.553h2.883Zm-4.406-11.513.691 5.198h-1.381l.69-5.198Z" style="fill:#7A8087;fill-opacity:1" class="fills"/><path d="m67.188 12.914-.812-6.132h2.883l1.523 13.441 1.523-13.441h2.883l-.812 6.152-1.747 10.985h-3.695l-1.746-11.005ZM83.35 6.782h-6.721v17.157h6.721v-2.741h-3.858v-4.467h3.33V13.99h-3.33V9.523h3.858V6.782ZM92.447 20.487c0 2.457-1.239 3.696-3.696 3.716-2.456 0-3.695-1.239-3.695-3.716V6.782h2.842v13.705c0 .65.285.975.833.975.568 0 .853-.325.853-.975V6.782h2.843l.02 13.705Z" style="fill:#7A8087;fill-opacity:1" class="fills"/><path fill-rule="evenodd" clip-rule="evenodd" d="M98.315 6.782h-3.736v17.137h2.842v-7.371h.163l1.949 7.371h3.107l-2.741-7.899c1.238-.446 1.868-1.462 1.868-3.005v-2.518c0-2.477-1.158-3.715-3.452-3.715Zm-.873 7.188V9.523h.67c.548 0 .832.325.832.974v2.498c0 .467-.183.772-.548.914-.102.04-.305.061-.609.061h-.345ZM108.406 6.701h3.98c2.315 0 3.472 1.258 3.472 3.736v2.558c0 1.178-.386 1.969-1.157 2.355.771.406 1.157 1.178 1.157 2.356v2.558c0 2.477-1.198 3.736-3.615 3.736h-3.837V6.701Zm2.884 7.269h.548c.304 0 .507-.021.609-.061.365-.142.548-.447.548-.934v-2.538c0-.65-.284-.995-.853-.995h-.852v4.528Zm0 2.761v4.508h.852c.569 0 .853-.325.853-.975v-2.558c0-.467-.183-.772-.548-.914-.102-.041-.305-.061-.609-.061h-.548Z" style="fill:#7A8087;fill-opacity:1" class="fills"/><path d="M120.792 6.701h-2.883V24.02h2.883V6.701ZM123.066 6.701h6.782v2.761h-3.899v4.508h3.351v2.761h-3.351v4.508h3.899V24h-6.782V6.701ZM123.086 3.898h2.701l2.578 2.478h-2.476l-2.803-2.478Z" style="fill:#7A8087;fill-opacity:1" class="fills"/><path fill-rule="evenodd" clip-rule="evenodd" d="M135.005 6.701h-3.776V24.02h2.883v-7.452h.142l1.969 7.452h3.148l-2.782-7.979c1.258-.467 1.888-1.483 1.888-3.046v-2.558c0-2.478-1.157-3.736-3.472-3.736Zm-.893 7.269V9.442h.65c.568 0 .852.345.852.995v2.538c0 .487-.182.792-.548.934-.102.04-.304.061-.609.061h-.345Z" style="fill:#7A8087;fill-opacity:1" class="fills"/><path d="M140.772 6.701h6.781v2.761h-3.898v4.508h3.35v2.761h-3.35v4.508h3.898V24h-6.781V6.701ZM49.218 30.558c-.04 0-.061-.02 0 0Zl-.04-1.259c0-.04.02-.06.061-.06h1.604c.02 0 .061-.021.081-.041.02-.02.04-.041.04-.081v-.366c0-.02-.02-.061-.04-.081-.02-.02-.041-.041-.081-.041H48.67c-.02 0-.061.021-.081.041-.02.02-.041.041-.041.081v4.285c0 .02.021.06.041.081.02.02.04.04.081.04h2.173c.02 0 .061-.02.081-.04.02-.021.04-.041.04-.081v-.366c0-.02-.02-.061-.04-.081-.02-.02-.041-.041-.081-.041h-1.625c-.04 0-.061-.02-.061-.061v-1.259c0-.04.021-.06.061-.06h1.543c.021 0 .061-.021.082-.041.02-.02.04-.041.04-.081v-.366c0-.02-.02-.061-.04-.081-.021-.02-.041-.041-.082-.041h-1.543ZM54.579 33.056c0 .04-.021.061 0 0Zc-.061.101-.102.122-.122.122h-.548c-.041 0-.061 0-.082-.021-.02-.02-.04-.04-.06-.081l-1.28-3.208c0-.02-.02-.02-.04-.02-.021 0-.021.02-.021.02v3.188c0 .04-.02.061-.04.081-.021.02-.061.041-.081.041h-.325c-.041 0-.061-.021-.082-.041-.02-.02-.04-.061-.04-.081v-4.284c0-.041.02-.061.04-.082.021-.02.061-.04.082-.04h.548c.041 0 .061 0 .081.02.02.02.041.041.061.081l1.279 3.208c0 .021.021.021.041.021s.02-.021.02-.021v-3.167c0-.041.02-.061.041-.081.02-.021.061-.041.081-.041h.325c.04 0 .061.02.081.041.02.02.041.061.041.081v4.264ZM57.543 31.513c.061.101.081.223.081.365 0 .049-.004.097-.009.148-.005.055-.011.113-.011.177-.041.102-.101.183-.183.244-.081.081-.162.122-.264.162-.101.041-.223.061-.324.061-.102 0-.224-.02-.325-.061-.102-.04-.183-.101-.264-.162-.081-.082-.142-.163-.183-.244-.041-.081-.061-.183-.061-.284v-.102c0-.02-.02-.061-.041-.081-.02-.02-.04-.041-.081-.041h-.365c-.021 0-.061.021-.081.041-.021.02-.041.041-.041.081v.102c0 .183.02.365.101.528.082.162.183.304.305.426.142.122.284.223.467.284.183.061.386.102.589.102.183 0 .365-.041.548-.102.183-.061.325-.142.467-.264.142-.121.244-.264.325-.426.081-.183.122-.365.122-.569 0-.385-.102-.67-.325-.893-.203-.223-.508-.386-.873-.467-.102-.02-.203-.041-.325-.081-.122-.041-.223-.081-.325-.122-.101-.061-.183-.122-.244-.203-.06-.081-.101-.203-.101-.345 0-.183.061-.345.203-.447.122-.101.304-.162.508-.162.081 0 .162.02.243.04.081.021.163.061.224.102.06.04.121.101.162.183.041.081.061.182.061.284v.081c0 .02.02.061.04.081.021.021.041.041.082.041h.365c.02 0 .061-.02.081-.041.021-.02.041-.04.041-.081v-.081c0-.163-.02-.325-.102-.467-.081-.142-.162-.284-.284-.386-.122-.102-.264-.203-.426-.264-.163-.061-.345-.102-.528-.102-.163 0-.325.021-.487.082-.163.061-.305.142-.427.243-.122.102-.223.244-.304.386-.082.163-.122.325-.122.528 0 .163.02.325.081.467.041.142.122.264.223.366.102.101.203.182.346.243.121.081.264.122.426.163.162.02.305.061.447.101.142.041.243.081.345.142.101.061.162.142.223.224ZM59.878 30.497c0 .041.021.061 0 0Zl1.604.061c.041 0 .061.021.082.041.02.02.04.061.04.081v.366c0 .04-.02.061-.04.081-.021.02-.061.041-.082.041h-1.543c-.04 0-.061.02-.061.06v1.259c0 .041.021.061.061.061h1.625c.04 0 .06.021.081.041.02.02.04.061.04.081v.366c0 .04-.02.06-.04.081-.021.02-.061.04-.081.04h-2.173c-.041 0-.061-.02-.081-.04-.021-.021-.041-.061-.041-.081v-4.285c0-.04.02-.061.041-.081.02-.02.061-.041.081-.041h2.173c.04 0 .06.021.081.041.02.02.04.061.04.081v.366c0 .04-.02.061-.04.081-.021.02-.061.041-.081.041h-1.605c-.04 0-.06.02-.06.06l-.021 1.198ZM63.919 30.64s-.02 0 0 0Zl-.487-1.889c-.041-.061-.082-.101-.143-.101h-.649c-.021 0-.061.02-.082.04-.02.021-.04.041-.04.082v4.284c0 .02.02.061.04.081.021.02.041.041.082.041h.304c.021 0 .061-.021.081-.041.021-.02.041-.041.041-.081v-3.391c0-.02 0-.041.02-.041.021 0 .041 0 .041.021l.508 1.807c.02.061.081.101.142.101h.345c.081 0 .122-.02.142-.101l.508-1.807c.02-.021.02-.021.04-.021.021 0 .021.021.021.041v3.391c0 .02.02.061.04.081.02.02.041.041.081.041h.305c.02 0 .061-.021.081-.041.02-.02.041-.041.041-.081v-4.284c0-.021-.021-.061-.041-.082-.02-.02-.04-.04-.081-.04h-.65c-.061 0-.122.02-.142.101l-.548 1.889Zc.02 0 .02 0 0 0Z" style="fill:#7A8087;fill-opacity:1" class="fills"/><path fill-rule="evenodd" clip-rule="evenodd" d="M68.467 30.721c-.061.061-.061.101 0 .142.142.101.244.264.325.447.081.182.122.365.122.548 0 .183-.041.345-.102.507-.061.163-.162.305-.284.427-.122.122-.264.223-.426.284-.163.061-.346.102-.528.102h-1.198c-.041 0-.061-.021-.082-.041-.02-.02-.04-.061-.04-.081v-4.284c0-.041.02-.061.04-.082.021-.02.061-.04.082-.04h1.198c.182 0 .345.02.487.081.162.061.284.142.406.244.122.101.203.243.264.385.061.143.102.305.102.488 0 .142-.021.304-.082.467-.081.162-.162.304-.284.406Zm-1.563-1.462c-.041 0-.061.02 0 0Zl-.061 1.178c0 .04.02.06.061.06h.649c.203 0 .366-.06.488-.182.121-.122.162-.285.162-.467 0-.102-.02-.183-.061-.244-.04-.081-.081-.142-.142-.183-.061-.04-.122-.081-.203-.122-.081-.02-.162-.04-.244-.04h-.649Zm.649 3.31c.102 0 .203-.021.285-.061.081-.041.162-.082.243-.163.061-.061.122-.142.163-.223.04-.081.061-.183.061-.284 0-.122-.021-.224-.061-.305-.041-.081-.102-.183-.163-.244-.061-.061-.142-.121-.243-.162-.102-.041-.183-.061-.285-.061h-.649c-.041 0-.061.02-.061.061v1.34c0 .041.02.061.061.061l.649.041Z" style="fill:#7A8087;fill-opacity:1" class="fills"/><path d="M70.761 32.569c-.04 0-.06-.021 0 0Zl-.06-3.797c0-.021-.021-.061-.041-.082-.02-.02-.041-.04-.081-.04h-.366c-.02 0-.061.02-.081.04-.02.021-.041.041-.041.082v4.284c0 .02.021.061.041.081.02.02.041.041.081.041h2.132c.021 0 .061-.021.081-.041.021-.02.041-.041.041-.081v-.366c0-.02-.02-.061-.041-.081-.02-.02-.04-.04-.081-.04h-1.584ZM74.193 30.497c0 .041.02.061 0 0Zl1.604.061c.041 0 .061.021.081.041.021.02.041.061.041.081v.366c0 .04-.02.061-.041.081-.02.02-.061.041-.081.041h-1.543c-.041 0-.061.02-.061.06v1.259c0 .041.02.061.061.061h1.624c.041 0 .061.021.081.041.021.02.041.061.041.081v.366c0 .04-.02.06-.041.081-.02.02-.06.04-.081.04h-2.172c-.041 0-.061-.02-.082-.04-.02-.021-.04-.061-.04-.081v-4.285c0-.04.02-.061.04-.081.021-.02.061-.041.082-.041h2.172c.041 0 .061.021.081.041.021.02.041.061.041.081v.366c0 .04-.02.061-.041.081-.02.02-.06.041-.081.041h-1.604c-.04 0-.061.02-.061.06l-.02 1.198Z" style="fill:#7A8087;fill-opacity:1" class="fills"/><path fill-rule="evenodd" clip-rule="evenodd" d="M80.528 33.137c.02.02.041.041 0 0Zl1.3.02c.182 0 .345-.02.507-.101.142-.061.284-.163.406-.284.122-.122.204-.264.285-.427.081-.162.121-.345.142-.528.02-.122.04-.264.04-.426.02-.163.02-.325.02-.487v-.488c-.009-.075-.014-.146-.018-.213-.006-.077-.011-.148-.022-.213-.02-.183-.061-.366-.142-.528-.061-.163-.163-.305-.285-.426-.101-.122-.243-.204-.405-.285-.143-.061-.326-.101-.508-.101h-1.239c-.02 0-.061.02-.081.04-.02.021-.041.041-.041.082l.041 4.365Zc-.041-.061-.02-.02 0 0Zm1.604-.629c-.102.04-.183.061-.284.061v-.021h-.69c-.041 0-.061-.02-.061-.061v-3.188c0-.04.02-.06.061-.06h.69c.101 0 .203.02.284.06.081.041.163.102.224.163.061.081.121.162.162.244.04.101.061.182.081.284.02.122.041.264.041.426v.488c0 .054.002.108.004.162.005.108.009.217-.004.325-.01.075-.015.146-.019.213-.006.077-.011.148-.022.213-.02.102-.041.203-.081.285-.041.101-.101.182-.162.243s-.143.122-.224.163Z" style="fill:#7A8087;fill-opacity:1" class="fills"/><path d="M84.914 30.497c0 .041.02.061 0 0Zl1.604.061c.04 0 .061.021.081.041.02.02.041.061.041.081v.366c0 .04-.021.061-.041.081-.02.02-.061.041-.081.041h-1.543c-.041 0-.061.02-.061.06v1.259c0 .041.02.061.061.061h1.624c.041 0 .061.021.081.041.02.02.041.061.041.081v.366c0 .04-.021.06-.041.081-.02.02-.061.04-.081.04h-2.172c-.041 0-.061-.02-.081-.04-.021-.021-.041-.061-.041-.081v-4.285c0-.04.02-.061.041-.081.02-.02.06-.041.081-.041h2.172c.041 0 .061.021.081.041.02.02.041.061.041.081v.366c0 .04-.021.061-.041.081-.02.02-.061.041-.081.041h-1.624c-.041 0-.061.02-.061.06v1.198ZM86.315 27.371c.041 0 .081.02.081.06.021.041 0 .061-.02.082l-.711.731-.061.061c-.02.02-.061.02-.122.02h-.264c-.04 0-.081-.02-.081-.041 0-.002 0-.005-.001-.007l-.001-.008-.002-.008c-.005-.02-.01-.044.004-.058l.488-.711.061-.061c.02-.02.06-.04.101-.04l.528-.02ZM89.34 32.589c-.101.02-.223.04-.324.04-.065 0-.128-.011-.189-.021-.056-.01-.108-.019-.157-.019-.102-.041-.183-.102-.264-.163-.014-.019-.029-.037-.043-.054-.045-.058-.089-.112-.119-.189-.041-.102-.061-.183-.082-.285-.02-.121-.041-.284-.041-.446-.02-.183-.02-.345-.02-.528 0-.094.006-.187.011-.278v-.001c.005-.086.009-.17.009-.249.01-.078.016-.152.021-.223.005-.077.01-.15.02-.224.021-.243.123-.426.285-.548.162-.122.365-.183.569-.183.162 0 .283.041.385.081.101.041.203.102.264.183.081.081.122.163.162.264.021.102.041.203.041.305 0 .02.02.061.041.081.02.02.04.041.081.041h.366c.02 0 .06-.021.081-.041.02-.02.04-.041.04-.081 0-.224-.02-.427-.101-.609-.081-.183-.183-.325-.305-.447-.142-.122-.284-.223-.467-.284-.183-.061-.386-.102-.588-.102-.225 0-.427.02-.589.102-.183.081-.326.182-.447.304-.142.122-.223.264-.305.427-.081.162-.122.324-.142.507-.021.122-.041.284-.041.447-.02.183-.02.345-.02.528 0 .094.006.187.01.278v.001c.006.086.01.17.01.249.01.076.015.152.02.224.005.082.011.158.021.222.02.224.081.407.163.569.101.162.202.305.324.426.142.102.285.203.447.264.162.061.345.102.549.102.243 0 .446-.041.629-.122.182-.081.345-.183.466-.325.122-.142.224-.284.285-.467.061-.183.102-.365.102-.548 0-.02-.021-.061-.041-.081-.02-.021-.041-.041-.081-.041h-.366c-.081 0-.101.041-.122.081-.02.041-.02.102-.02.142 0 .122-.04.224-.081.325-.041.082-.101.163-.183.224-.081.061-.163.101-.264.142Z" style="fill:#7A8087;fill-opacity:1" class="fills"/><path fill-rule="evenodd" clip-rule="evenodd" d="M92.528 28.589c.203 0 .386.04.548.101.163.061.304.163.446.264.123.122.224.264.326.427.081.162.142.345.162.568.011.065.016.141.021.223.005.072.01.148.02.224v.528c0 .183 0 .345-.021.528 0 .162-.02.325-.04.446-.021.183-.061.346-.142.508-.081.163-.162.305-.305.427-.142.121-.264.223-.446.304-.183.081-.366.102-.569.102-.203 0-.386-.041-.548-.102-.163-.061-.305-.162-.447-.264-.122-.122-.224-.264-.325-.426-.081-.163-.142-.345-.162-.569-.011-.064-.017-.141-.022-.222-.005-.072-.009-.148-.019-.225 0-.078-.005-.162-.01-.248-.005-.091-.01-.186-.01-.279 0-.183 0-.346.02-.528 0-.163.021-.325.041-.447.02-.183.061-.345.142-.508.081-.162.162-.304.304-.426.122-.122.264-.223.447-.305.182-.061.386-.101.589-.101Zm0 .609c-.203 0-.407.061-.569.183-.162.122-.263.304-.284.548-.01.074-.016.147-.021.224-.005.071-.009.144-.019.223 0 .078-.005.162-.01.248-.005.091-.011.185-.011.28 0 .182 0 .345.021.527 0 .163.02.325.04.447.021.102.041.183.081.284.032.078.074.132.12.189l.017.023c.009.01.017.021.026.032.081.061.162.122.263.163.102.04.204.06.346.06.223 0 .406-.06.569-.182.162-.122.243-.305.283-.549.021-.142.041-.284.041-.446.02-.163.02-.345.02-.528 0-.183 0-.345-.02-.528-.009-.076-.014-.152-.019-.224-.005-.082-.011-.158-.022-.223-.02-.101-.04-.183-.081-.284-.04-.081-.101-.162-.162-.244-.081-.06-.162-.122-.244-.162-.081-.041-.223-.061-.365-.061Z" style="fill:#7A8087;fill-opacity:1" class="fills"/><path d="M95.35 32.203c-.061-.081-.081-.203-.081-.325h-.041v-3.167c0-.021-.02-.061-.04-.082-.02-.02-.041-.04-.081-.04h-.366c-.02 0-.061.02-.081.04-.021.021-.041.041-.041.082v3.127c0 .203.02.385.102.548.081.162.182.304.305.426.142.122.284.224.466.284.183.061.386.102.589.102.203 0 .386-.041.569-.102.182-.06.325-.162.467-.284.142-.122.243-.264.324-.426.081-.183.122-.345.122-.548v-3.127c0-.021-.02-.061-.041-.082-.02-.02-.04-.04-.081-.04h-.365c-.02 0-.06.02-.081.04-.02.021-.041.041-.041.082v3.127c0 .101-.02.182-.061.284-.041.101-.101.183-.183.243-.06.082-.162.122-.263.163-.102.041-.224.061-.346.061-.101 0-.203-.02-.304-.041-.101-.02-.183-.061-.264-.122-.082-.061-.142-.121-.183-.223ZM100.629 28.731c.021-.061.061-.102.122-.102h.406c.061 0 .082.021.102.041.02.02.02.061.02.102l-1.218 4.304c-.021.061-.061.102-.122.102h-.508c-.061 0-.101-.041-.121-.102l-1.219-4.304c0-.041 0-.061.02-.102.021-.041.061-.061.102-.061h.386c.061 0 .101.041.122.102l.913 3.472c0 .02.021.04.041.04h.021c.012 0 .017-.007.024-.018.003-.007.008-.015.016-.022l.893-3.452Z" style="fill:#7A8087;fill-opacity:1" class="fills"/><path fill-rule="evenodd" clip-rule="evenodd" d="M102.68 31.431c0-.04.021-.06 0 0Zl.061-.081h.386c.041 0 .061 0 .081.021.021.02.041.04.041.06l.771 1.605c.024.023.041.047.055.067l.008.011.007.009c.002.003.004.005.006.008l.002.003.003.003c.009.004.016.008.024.013.027.015.05.028.098.028h.366c.061 0 .101-.021.122-.061.02-.041.02-.102 0-.142l-.772-1.584c-.04-.061-.04-.102-.02-.142.017-.034.047-.053.091-.082.009-.006.02-.013.031-.02.202-.122.365-.284.487-.487s.183-.427.183-.67c0-.183-.021-.366-.102-.528-.061-.163-.162-.305-.284-.426-.122-.122-.264-.204-.426-.285-.163-.061-.346-.101-.528-.101h-1.178c-.021 0-.061.02-.081.04-.021.021-.041.041-.041.082v4.284c0 .02.02.061.041.081.02.02.04.041.081.041h.366c.02 0 .06-.021.081-.041.02-.02.04-.041.04-.081v-1.625Zm0-2.111c0-.041.021-.061 0 0Zl.061-.081h.609c.102 0 .203.02.284.06.102.041.184.102.244.163.061.081.122.162.163.244.04.081.06.182.06.284 0 .101-.02.183-.06.284-.041.102-.102.183-.163.244-.081.061-.162.122-.244.162-.081.041-.182.061-.284.061h-.609c-.04 0-.061-.02-.061-.061v-1.36ZM106.842 28.589c.204 0 .387.04.549.101.162.061.304.163.447.264.121.122.223.264.324.427.081.162.142.345.163.568.01.065.016.141.021.223.005.072.01.148.019.224v.528c0 .183 0 .345-.02.528 0 .162-.02.325-.041.446-.02.183-.061.346-.142.508-.081.163-.162.305-.304.427-.142.121-.264.223-.447.304-.182.081-.365.102-.569.102-.202 0-.385-.041-.548-.102-.162-.061-.304-.162-.446-.264-.122-.122-.224-.264-.325-.426-.081-.163-.142-.345-.163-.569-.01-.064-.015-.14-.021-.222-.004-.072-.01-.148-.019-.225 0-.078-.005-.162-.01-.247v-.001c-.005-.092-.01-.185-.01-.279 0-.183 0-.346.02-.528 0-.163.02-.325.04-.447.021-.183.061-.345.142-.508.081-.162.163-.304.305-.426.122-.122.264-.223.447-.305.163-.061.365-.101.588-.101Zm0 .609c-.202 0-.405.061-.568.183-.162.122-.264.304-.284.548-.011.074-.016.147-.021.224-.005.071-.01.144-.02.223 0 .078-.005.162-.009.248-.006.091-.011.185-.011.28 0 .182 0 .345.02.527 0 .163.021.325.041.447.02.102.041.183.081.284.031.078.074.132.12.189.014.018.028.036.042.055.082.061.163.122.265.163.101.04.203.06.344.06.224 0 .407-.06.569-.182.162-.122.244-.305.284-.549.021-.142.041-.284.041-.446.021-.163.021-.345.021-.528 0-.183 0-.345-.021-.528-.01-.076-.014-.152-.02-.224-.004-.082-.01-.158-.021-.223-.02-.101-.04-.183-.081-.284-.041-.081-.101-.162-.162-.244-.081-.061-.163-.122-.244-.162-.081-.041-.244-.061-.366-.061Z" style="fill:#7A8087;fill-opacity:1" class="fills"/><path d="M111.736 33.137c.021-.02.041-.041 0 0Zl.041-4.345c0-.02-.02-.061-.041-.081-.02-.021-.041-.041-.082-.041h-.324c-.02 0-.061.02-.081.041-.02.02-.041.04-.041.081v3.167s0 .021-.02.021-.04 0-.04-.021l-1.28-3.208c-.02-.04-.04-.061-.061-.081-.02-.02-.04-.02-.081-.02h-.548c-.02 0-.061.02-.081.04-.021.021-.041.041-.041.082v4.284c0 .02.02.061.041.081.02.02.04.041.081.041h.324c.021 0 .061-.021.081-.041.021-.02.041-.041.041-.081v-3.188s0-.02.02-.02c.021 0 .041 0 .041.02l1.279 3.208c.02.041.041.061.061.081.021.021.041.021.082.021l.629-.041Zc-.061.041-.02.02 0 0ZM114.822 31.878c0-.142-.02-.264-.081-.365-.061-.082-.121-.163-.223-.224-.102-.061-.204-.101-.345-.142-.142-.04-.284-.081-.447-.101-.163-.041-.305-.082-.426-.163-.142-.061-.244-.142-.346-.243-.101-.102-.182-.224-.223-.366-.061-.142-.081-.304-.081-.467 0-.203.041-.365.122-.528.081-.142.182-.284.304-.386.122-.101.264-.182.426-.243.163-.061.326-.082.488-.082.183 0 .365.041.528.102.162.061.304.162.426.264.122.102.204.244.285.386.081.142.101.304.101.467v.081c0 .041-.02.061-.04.081-.021.021-.061.041-.081.041h-.387c-.04 0-.061-.02-.081-.041-.02-.02-.04-.061-.04-.081v-.081c0-.102-.021-.203-.061-.284-.041-.082-.102-.143-.162-.183-.062-.041-.143-.081-.224-.102-.081-.02-.163-.04-.244-.04-.203 0-.386.061-.508.162-.141.102-.202.264-.202.447 0 .142.04.264.101.345.061.081.142.142.243.203.102.041.204.081.326.122.121.04.223.061.324.081.366.081.67.244.874.467.223.223.324.508.324.893 0 .204-.04.386-.121.569-.081.162-.183.305-.325.426-.143.122-.285.203-.467.264-.183.061-.366.102-.548.102-.203 0-.407-.041-.589-.102-.183-.061-.325-.162-.468-.284-.121-.122-.223-.264-.304-.426-.081-.163-.101-.345-.101-.528v-.102c0-.04.02-.061.04-.081.021-.02.061-.041.082-.041h.365c.041 0 .061.021.081.041.021.02.041.061.041.081v.102c0 .101.02.203.061.284.04.081.101.162.182.244.081.061.163.122.264.162.102.041.224.061.325.061.102 0 .223-.02.325-.061.102-.04.183-.081.264-.162.081-.061.142-.142.183-.244l.008-.052c.017-.099.032-.186.032-.273ZM120.812 32.569c-.04 0-.061-.021 0 0Zl-.061-3.797c0-.021-.02-.061-.04-.082-.021-.02-.041-.04-.081-.04h-.366c-.021 0-.061.02-.081.04-.021.021-.041.041-.041.082v4.284c0 .02.02.061.041.081.02.02.04.041.081.041h2.132c.02 0 .061-.021.081-.041.021-.02.041-.041.041-.081v-.366c0-.02-.02-.061-.041-.081-.02-.02-.041-.04-.081-.04h-1.584Z" style="fill:#7A8087;fill-opacity:1" class="fills"/><path fill-rule="evenodd" clip-rule="evenodd" d="M123.756 33.096c-.02.061-.061.102-.122.102h-.365c-.061 0-.081-.02-.101-.041-.021-.02-.021-.061-.021-.081l1.218-4.325c.02-.061.061-.101.122-.101h.447c.061 0 .101.04.121.101l1.219 4.325c0 .02 0 .061-.02.081-.021.021-.061.041-.102.041h-.365c-.062 0-.102-.041-.122-.102l-.284-.994c-.02-.061-.061-.082-.122-.082h-1.097c-.061 0-.101.041-.121.082l-.285.994Zm.508-1.766c-.021.041 0 .081.061.081h.812c.041 0 .061-.02.061-.081l-.426-1.807c0-.02-.021-.041-.021-.041h-.02c-.02 0-.02.021-.02.041l-.447 1.807ZM132.812 30.863c-.061-.041-.061-.081 0-.142.122-.102.223-.244.284-.406.061-.163.082-.325.082-.467 0-.183-.041-.345-.102-.488-.061-.142-.142-.284-.264-.385-.121-.102-.243-.183-.406-.244-.142-.061-.304-.081-.487-.081h-1.198c-.02 0-.061.02-.081.04-.02.021-.041.041-.041.082v4.284c0 .02.021.061.041.081.02.02.041.041.081.041h1.198c.183 0 .365-.041.527-.102.164-.061.306-.162.427-.284.122-.122.223-.264.284-.427.061-.162.102-.324.102-.507s-.041-.366-.122-.548c-.081-.183-.183-.346-.325-.447Zm-1.624-1.543c0-.041.02-.061 0 0Zl.711-.061c.081 0 .162.02.243.04.081.041.142.082.203.122.061.041.101.102.142.183.041.061.061.142.061.244 0 .182-.04.345-.162.467-.122.122-.284.182-.487.182h-.65c-.041 0-.061-.02-.061-.06V29.32Zm.995 3.188c-.081.04-.183.061-.284.061v-.041h-.65c-.041 0-.061-.02-.061-.061v-1.34c0-.041.02-.061.061-.061h.65c.101 0 .182.02.284.061.101.041.182.101.243.162s.122.163.163.244c.041.081.061.183.061.305 0 .101-.02.203-.061.284-.041.081-.102.162-.163.223-.081.081-.162.122-.243.163Z" style="fill:#7A8087;fill-opacity:1" class="fills"/><path d="M135.126 29.259c0-.041-.02-.061 0 0Zl-.771-.061c-.04 0-.061-.02-.081-.041-.02-.02-.041-.061-.041-.081v-.304c0-.041.021-.061.041-.082.02-.02.061-.04.081-.04h2.173c.041 0 .061.02.081.04.021.021.041.061.041.082v.304c0 .041-.02.061-.041.081-.02.021-.061.041-.081.041h-.711c-.041 0-.061.02-.061.061v3.289c0 .041.02.061.061.061h.772c.041 0 .061.02.081.041.021.02.041.061.041.081v.305c0 .04-.02.06-.041.081-.02.02-.061.04-.081.04h-2.315c-.041 0-.061-.02-.081-.04-.02-.021-.041-.061-.041-.081v-.305c0-.041.021-.061.041-.081.02-.021.061-.041.081-.041h.771c.041 0 .061-.02.061-.061l.02-3.289ZM138.599 30.558c-.041 0-.061-.02 0 0Zl-.041-1.259c0-.04.021-.06.062-.06h1.603c.021 0 .061-.021.081-.041.021-.02.041-.041.041-.081v-.366c0-.02-.02-.061-.041-.081-.02-.02-.04-.041-.081-.041h-2.172c-.02 0-.061.021-.081.041-.02.02-.041.041-.041.081v4.285c0 .02.021.06.041.081.02.02.04.04.081.04h2.172c.021 0 .061-.02.081-.04.021-.021.041-.041.041-.081v-.366c0-.02-.02-.061-.041-.081-.02-.02-.04-.041-.081-.041h-1.624c-.041 0-.061-.02-.061-.061v-1.259c0-.04.02-.06.061-.06h1.543c.02 0 .061-.021.081-.041.021-.02.041-.041.041-.081v-.366c0-.02-.02-.061-.041-.081-.02-.02-.04-.041-.081-.041h-1.543ZM138.883 27.411c-.02-.02-.061-.04-.101-.04v-.021h-.528c-.041 0-.081.021-.081.061 0 .041 0 .061.02.081l.71.731.061.061c.021.021.061.021.122.021h.264c.041 0 .061 0 .082-.041.02-.041.02-.061 0-.081l-.549-.772Z" style="fill:#7A8087;fill-opacity:1" class="fills"/><path fill-rule="evenodd" clip-rule="evenodd" d="M142.071 31.371c-.04 0-.06.02 0 0Zl-.06 1.685c0 .04-.021.061-.041.081-.021.02-.061.041-.082.041h-.365c-.041 0-.061-.021-.081-.041-.02-.02-.041-.061-.041-.081v-4.284c0-.041.021-.061.041-.082.02-.02.061-.04.081-.04h1.178c.182 0 .365.04.527.101.163.081.305.163.427.285.121.121.223.263.284.426.082.162.102.345.102.528 0 .243-.061.467-.183.67s-.284.365-.487.487c-.011.007-.021.014-.031.02-.044.029-.074.048-.091.082-.021.04-.021.081.02.142l.772 1.584c.02.04.02.101 0 .142-.02.04-.061.061-.122.061h-.366c-.048 0-.07-.013-.098-.028-.007-.005-.015-.009-.023-.013-.009-.008-.017-.02-.027-.034-.014-.02-.031-.044-.054-.067l-.772-1.605c0-.02-.021-.04-.041-.06-.021-.021-.041-.021-.081-.021l-.386.021Zm0-2.112c-.04 0-.06.02 0 0Zl-.06 1.421c0 .041.02.061.06.061h.61c.101 0 .202-.02.283-.061.081-.04.163-.101.244-.162.061-.061.122-.142.163-.244.04-.101.061-.183.061-.284 0-.102-.021-.203-.061-.284-.041-.082-.102-.163-.163-.244-.061-.061-.142-.122-.244-.163-.081-.04-.182-.06-.283-.06l-.61.02Z" style="fill:#7A8087;fill-opacity:1" class="fills"/><path d="M145.746 30.558c-.041 0-.061-.02 0 0Zl-.041-1.259c0-.04.021-.06.061-.06h1.605c.02 0 .061-.021.081-.041.02-.02.04-.041.04-.081v-.366c0-.02-.02-.061-.04-.081-.02-.02-.041-.041-.081-.041h-2.173c-.021 0-.061.021-.082.041-.02.02-.04.041-.04.081v4.285c0 .02.02.06.04.081.021.02.041.04.082.04h2.173c.02 0 .061-.02.081-.04.02-.021.04-.041.04-.081v-.366c0-.02-.02-.061-.04-.081-.02-.02-.041-.041-.081-.041h-1.625c-.041 0-.061-.02-.061-.061v-1.259c0-.04.02-.06.061-.06h1.543c.021 0 .062-.021.082-.041.02-.02.04-.041.04-.081v-.366c0-.02-.02-.061-.04-.081-.02-.02-.041-.041-.082-.041h-1.543Z" style="fill:#7A8087;fill-opacity:1" class="fills"/></g></svg>