<svg width="84.572" xmlns="http://www.w3.org/2000/svg" height="36" style="-webkit-print-color-adjust:exact" fill="none"><g xmlns:xlink="http://www.w3.org/1999/xlink" xml:space="preserve" style="fill-rule:evenodd;clip-rule:evenodd;stroke-linejoin:round;stroke-miterlimit:2;fill:#7A8087"><path d="M57.645 4.173c-.739 0-1.339.605-1.339 1.35v12.591c0 .745.6 1.35 1.339 1.35s1.339-.605 1.339-1.35V5.523c.008-.745-.6-1.35-1.339-1.35ZM83.198 4.173c-.739 0-1.339.605-1.339 1.35v12.591c0 .745.6 1.35 1.339 1.35s1.339-.605 1.339-1.35V5.523c0-.745-.6-1.35-1.339-1.35ZM64.765 21.034c-.556 0-1 .456-1 1.008 0 .561.452 1.008 1 1.008.557 0 1-.456 1-1.008.009-.561-.443-1.008-1-1.008ZM68.061 21.034c-.557 0-1 .456-1 1.008 0 .561.452 1.008 1 1.008.556 0 .999-.456.999-1.008 0-.561-.452-1.008-.999-1.008ZM83.572 21.034c-.557 0-1 .456-1 1.008 0 .561.452 1.008 1 1.008.556 0 1-.456 1-1.008.008-.561-.444-1.008-1-1.008ZM66.417 24.173c-.521 0-.948.429-.948.955v9.75c0 .526.427.956.948.956.522 0 .939-.43.939-.956v-9.75c0-.526-.417-.955-.939-.955ZM83.598 24.173c-.522 0-.948.429-.948.955v9.75c0 .526.426.956.948.956.521 0 .948-.43.948-.956v-9.75c0-.526-.427-.955-.948-.955ZM79.146 29.863c.34-.202.644-.43.887-.684.67-.71.791-1.429.774-1.92-.052-1.973-2.287-3.341-5.443-3.341h-.131c-1.442.018-2.756.342-3.729.886-.122-.386-.479-.658-.896-.658-.521 0-.948.43-.948.947v9.776c0 .526.427.956.948.956.461 0 .852-.342.931-.79.947.527 2.225.825 3.703.825h.122c1.991-.026 3.739-.623 4.669-1.605.67-.71.791-1.429.774-1.92-.026-1.026-.644-1.885-1.661-2.472Zm-7.434-3.236c.627-.657 2.009-1.086 3.539-1.113h.113c2.139 0 3.834.789 3.86 1.789.009.263-.104.517-.338.771-.627.658-2.018 1.087-3.548 1.113h-.105c-2.147 0-3.842-.789-3.869-1.788 0-.272.113-.526.348-.772Zm7.174 6.515c-.627.657-2.018 1.087-3.548 1.113h-.105c-2.147 0-3.842-.789-3.869-1.788-.008-.264.105-.517.34-.772.625-.657 2.008-1.087 3.538-1.113h.113c2.139 0 3.835.789 3.861 1.788.017.272-.096.527-.33.772ZM62.157 24.146c-.522 0-.948.43-.948.947v.517c-1.191-1.025-2.799-1.648-4.564-1.648-3.643 0-6.608 2.665-6.608 5.936 0 3.27 2.965 5.936 6.608 5.936 1.765 0 3.373-.632 4.564-1.649v.684c0 .526.426.956.948.956s.939-.43.939-.956v-9.776c0-.526-.417-.947-.939-.947Zm-5.512 9.995c-2.609 0-4.721-1.902-4.721-4.243s2.121-4.252 4.721-4.252c2.608 0 4.721 1.911 4.721 4.252 0 2.341-2.113 4.243-4.721 4.243ZM47.255 29.863c.339-.202.643-.43.886-.684.67-.71.792-1.429.774-1.92-.052-1.964-2.286-3.341-5.442-3.341h-.131c-1.443.018-2.756.342-3.73.886-.121-.386-.478-.658-.895-.658-.522 0-.948.43-.948.947v9.776c0 .526.426.956.948.956.469 0 .852-.342.93-.79.948.527 2.226.825 3.704.825h.122c1.991-.026 3.738-.623 4.668-1.605.67-.701.792-1.429.774-1.92-.026-1.026-.634-1.885-1.66-2.472Zm-7.443-3.236c.626-.657 2.017-1.086 3.539-1.113h.113c2.139 0 3.834.789 3.86 1.789.009.263-.104.517-.339.771-.626.658-2.017 1.087-3.547 1.113h-.105c-2.147 0-3.842-.789-3.869-1.788.009-.272.122-.526.348-.772Zm7.182 6.524c-.626.657-2.017 1.096-3.547 1.113h-.105c-2.147 0-3.843-.789-3.869-1.789-.009-.262.104-.517.339-.771.626-.658 2.017-1.087 3.539-1.114h.113c2.139 0 3.834.789 3.86 1.789.017.263-.095.518-.33.772ZM29.44 23.795c-3.739 0-6.782 2.736-6.782 6.103 0 3.358 3.043 6.102 6.782 6.102s6.781-2.735 6.781-6.102c0-3.367-3.042-6.103-6.781-6.103Zm0 10.513c-2.704 0-4.904-1.982-4.904-4.41 0-2.437 2.2-4.419 4.904-4.419 2.704 0 4.903 1.982 4.903 4.419 0 2.437-2.199 4.41-4.903 4.41ZM59.844 0c-.739 0-1.339.605-1.339 1.35 0 .745.6 1.351 1.339 1.351.74 0 1.339-.606 1.339-1.351S60.584 0 59.844 0ZM56.784 1.35c0-.745-.6-1.35-1.339-1.35s-1.339.605-1.339 1.35c0 .745.6 1.351 1.339 1.351.73 0 1.339-.606 1.339-1.351ZM83.198 2.701c.739 0 1.339-.606 1.339-1.351S83.937 0 83.198 0s-1.339.605-1.339 1.35c0 .745.609 1.351 1.339 1.351ZM34.361 16.895l-8.521-5.602 8.347-4.323c.635-.368.852-1.192.487-1.832-.235-.412-.678-.667-1.157-.667-.235 0-.46.062-.66.176L22.98 9.855V5.533c0-.737-.601-1.342-1.331-1.342s-1.33.605-1.33 1.342v12.528c0 .737.6 1.342 1.33 1.342.73 0 1.331-.605 1.331-1.342v-3.735c.008-.508.417-.912.913-.912.121 0 .243.027.356.071h.009l8.755 5.742c.2.115.435.184.669.184.479 0 .914-.254 1.157-.666.182-.307.226-.675.13-1.017-.087-.359-.304-.649-.608-.833ZM13.32 4.217H4.356C1.956 4.217 0 6.19 0 8.61v6.409c0 2.42 1.956 4.392 4.356 4.392h8.964c2.399 0 4.356-1.972 4.356-4.392V8.61c0-2.429-1.947-4.393-4.356-4.393Zm1.704 10.486c0 1.14-.922 2.07-2.052 2.07H4.704c-1.13 0-2.052-.93-2.052-2.07V8.917c0-1.14.922-2.07 2.052-2.07h8.268c1.13 0 2.052.93 2.052 2.07v5.786ZM77.851 0c-.739 0-1.331.605-1.331 1.342v3.129H66.026c-2.365 0-4.278 1.938-4.278 4.314v6.296c0 2.384 1.922 4.313 4.278 4.313h8.886c2.365 0 4.277-1.937 4.277-4.313V1.342C79.189.596 78.581 0 77.851 0Zm-3.287 16.746h-8.199c-1.069 0-1.947-.885-1.947-1.964v-5.69c0-1.087.878-1.964 1.947-1.964h10.147v7.654c.008 1.079-.869 1.964-1.948 1.964ZM49.324 4.471h-9.947c-.46 0-.877.237-1.121.632-.131.21-.2.456-.2.701 0 .737.591 1.333 1.321 1.333h9.608c1.078 0 1.948.885 1.948 1.964v.921H40.508c-.487 0-.974.087-1.435.245-1.756.631-2.852 2.139-2.852 3.936v1.018c0 2.349 1.879 4.182 4.278 4.182h8.817c2.364 0 4.277-1.938 4.277-4.314V8.785c.017-2.384-1.904-4.314-4.269-4.314Zm1.609 10.311c0 1.088-.879 1.964-1.948 1.964h-8.26c-1.069 0-1.817-.754-1.817-1.832v-.412c0-1.079.748-1.833 1.817-1.833h10.216l-.008 2.113Z" style="fill-rule:nonzero;fill:#7A8087;fill-opacity:1" class="fills"/></g></svg>