<svg xmlns="http://www.w3.org/2000/svg" viewBox="0 0 155 110"><defs><style>.a{fill:#003c78;}.b{fill:#d7321e;}</style></defs><title>logo-mdf</title><path class="a" d="M62.54,42.23V41.17a3.74,3.74,0,0,1-3,1.18,4.25,4.25,0,0,1-3.14-1.09,3.94,3.94,0,0,1-1-2.76c0-2,1.35-3.57,4.25-3.57h2.86v-.61c0-1.35-.66-1.94-2.29-1.94a2.72,2.72,0,0,0-2.36,1.06l-1.94-1.91a5.15,5.15,0,0,1,4.41-1.75c3.47,0,5.24,1.46,5.24,4.34v8.1ZM62.47,37H60.13c-1.23,0-1.82.5-1.82,1.42s.59,1.39,1.86,1.39A2.34,2.34,0,0,0,62,39.26a1.91,1.91,0,0,0,.47-1.56Z"/><path class="a" d="M68.84,42.23V30.28h3.07V42.23Z"/><path class="a" d="M79.36,42.37c-1.94,0-3.66-.21-5.24-1.77l2-2a4.43,4.43,0,0,0,3.28,1.16c1.06,0,2.17-.35,2.17-1.27,0-.61-.31-1-1.3-1.13l-2-.19c-2.17-.21-3.54-1.18-3.54-3.45,0-2.57,2.24-3.92,4.74-3.92a6.6,6.6,0,0,1,4.7,1.44l-1.89,1.91a4.23,4.23,0,0,0-2.86-.83c-1.23,0-1.75.57-1.75,1.18s.35,1,1.28,1.06l1.93.19c2.43.24,3.66,1.51,3.66,3.61C84.58,41.07,82.27,42.37,79.36,42.37Z"/><path class="a" d="M95.65,40.86a5.14,5.14,0,0,1-3.82,1.51A5.08,5.08,0,0,1,88,40.86c-1.11-1.18-1.39-2.57-1.39-4.79s.28-3.59,1.39-4.77a5.57,5.57,0,0,1,7.63,0C96.76,32.48,97,33.85,97,36.07S96.78,39.7,95.65,40.86Zm-2.38-7.77a1.93,1.93,0,0,0-1.44-.54,1.92,1.92,0,0,0-1.42.54c-.64.61-.71,1.72-.71,3s.07,2.38.71,3a1.92,1.92,0,0,0,1.42.54,1.94,1.94,0,0,0,1.44-.54c.64-.61.71-1.72.71-3S93.9,33.71,93.26,33.09Z"/><path class="a" d="M107.12,42.23V34.79a2.05,2.05,0,1,0-4.08,0v7.44H100V29.93h3v1.13A4.2,4.2,0,0,1,106,29.79a4,4,0,0,1,2.9,1.09,4.56,4.56,0,0,1,1.25,3.49v7.86Z"/><path class="a" d="M117.52,42.37c-1.93,0-3.66-.21-5.24-1.77l2-2a4.44,4.44,0,0,0,3.28,1.16c1.06,0,2.17-.35,2.17-1.27,0-.61-.31-1-1.3-1.13l-2-.19c-2.17-.21-3.54-1.18-3.54-3.45,0-2.57,2.24-3.92,4.74-3.92a6.6,6.6,0,0,1,4.7,1.44l-1.89,1.91a4.23,4.23,0,0,0-2.86-.83c-1.23,0-1.75.57-1.75,1.18s.36,1,1.28,1.06l1.94.19c2.43.24,3.66,1.51,3.66,3.61C122.74,41.07,120.43,42.37,117.52,42.37Z"/><polygon class="b" points="75.1 22.22 66.64 22.22 66.64 4.3 75.1 4.3 75.1 22.22 75.1 22.22"/><path class="a" d="M50.51,4.57a41.38,41.38,0,0,1,1.24,10.3q0,7.56,0,15.11A31.82,31.82,0,0,1,52,35.47q-.17,3.74-.27,7.47c.17,2.83.37,5.65.59,8.48.08,2.1-.25,3.16-1,3.16-.46,0-1.26-.52-2.38-1.54a6.94,6.94,0,0,1-2-2.61,2.72,2.72,0,0,0,.19-.92,10.79,10.79,0,0,0-.63-3.65q-.09-2.66-.22-5.39-.23-6.72-.17-12.11a107.1,107.1,0,0,1,.69-12.85,4.71,4.71,0,0,0-.29-1.74,12.62,12.62,0,0,0-.5-1.33,9.84,9.84,0,0,0-.55-1.08,12.83,12.83,0,0,0-2.32,2.82,53.37,53.37,0,0,0-7,13.35q-.28.83-3.55,13.1-1.28,4.81-3.47,4.81c-.46,0-1-.4-1.76-1.2a8,8,0,0,1-1.63-2.94,92.19,92.19,0,0,0-.25-10.86,44.49,44.49,0,0,0-1.78-10l-1.07-3.32q-2.06.25-4.91,5.31a75.07,75.07,0,0,0-4.32,9.29c-.62,1.66-1.21,3.32-1.78,5Q10.2,40.3,8.61,50.17c-.68,4-1.84,6.06-3.5,6.06l-1.35-1a5,5,0,0,1-1.65-1.91q-.5-1.57.18-7.8.38-3.32,1.55-10.79.43-2.74.9-5.56a47.77,47.77,0,0,1,.71-6.77q.7-4.44,1.44-9c0-1.33,0-2.68,0-4.06s.73-2.16,1.78-2.16a9.91,9.91,0,0,1,1.48,1,6.34,6.34,0,0,1,2.11,2.74c-.29.22-.48.94-.54,2.16a24.25,24.25,0,0,0,.53,5.31,21.69,21.69,0,0,0,4.19-5.13q4.17-6.45,6.24-6.45A2.72,2.72,0,0,1,25.12,8.2a19.09,19.09,0,0,1,1.69,4,10.61,10.61,0,0,1,.56,2.74,6.75,6.75,0,0,0,.27,1.83q.85,2.65,1.4,4.72t.73,3.15q1.66-3.15,3.4-6.3,4.48-8.05,7-11.87Q44.31,0,46,0q.89,0,2.54,1.75a8.4,8.4,0,0,1,2,2.82"/><path class="a" d="M15.51,77.34V76.18a3.69,3.69,0,0,1-3,1.3,4.13,4.13,0,0,1-3-1.11c-1.18-1.2-1.28-3.12-1.28-5.19s.09-4,1.28-5.17a4.08,4.08,0,0,1,3-1.11,3.68,3.68,0,0,1,3,1.23v-5.6h3.07V77.34Zm-2.17-9.68c-1.84,0-2.08,1.53-2.08,3.52s.24,3.54,2.08,3.54,2.1-1.56,2.1-3.54S15.18,67.66,13.34,67.66Z"/><path class="a" d="M21.9,65.89V60.53h3.21v2.93Z"/><path class="a" d="M30.94,72.15a2.52,2.52,0,0,0,2.69,2.74,3.48,3.48,0,0,0,2.78-1.16l1.86,1.82a5.78,5.78,0,0,1-4.67,1.94c-2.9,0-5.69-1.32-5.69-6.3,0-4,2.17-6.28,5.36-6.28,3.42,0,5.36,2.46,5.36,5.95v1.3Zm4.39-3.42a2.29,2.29,0,0,0-4.11,0A3,3,0,0,0,30.94,70h4.67A3,3,0,0,0,35.33,68.72Z"/><path class="a" d="M48.69,77.34V69.9a2,2,0,1,0-4.08,0v7.44H41.53V65h3v1.13A4.21,4.21,0,0,1,47.6,64.9,4,4,0,0,1,50.51,66a4.56,4.56,0,0,1,1.25,3.49v7.86Z"/><path class="a" d="M64.19,63.46v4.13h6.63v2.93H64.19v6.82H60.91V60.53H72v2.93Z"/><path class="a" d="M78.14,77.34a3.34,3.34,0,0,1-3.59-3.52V60.53h3.07v13.1c0,.73.31,1.11,1.09,1.11h1.18v2.6Z"/><path class="a" d="M88.71,77.34V76.28a3.74,3.74,0,0,1-3,1.18,4.25,4.25,0,0,1-3.14-1.09,3.94,3.94,0,0,1-1-2.76c0-2,1.34-3.56,4.25-3.56h2.86v-.61c0-1.35-.66-1.94-2.29-1.94A2.72,2.72,0,0,0,84,68.56l-1.94-1.91a5.15,5.15,0,0,1,4.42-1.75c3.47,0,5.24,1.46,5.24,4.34v8.1Zm-.07-5.19H86.3c-1.23,0-1.82.5-1.82,1.42S85.08,75,86.35,75a2.34,2.34,0,0,0,1.82-.59,1.9,1.9,0,0,0,.47-1.56Z"/><path class="a" d="M102.23,77.34V69.9a2.05,2.05,0,1,0-4.08,0v7.44H95.08V65h3v1.13a4.22,4.22,0,0,1,3.07-1.27A4,4,0,0,1,104.05,66a4.56,4.56,0,0,1,1.25,3.49v7.86Z"/><path class="a" d="M115.47,77.34V76.18a3.69,3.69,0,0,1-3,1.3,4.14,4.14,0,0,1-3-1.11c-1.18-1.2-1.28-3.12-1.28-5.19s.1-4,1.28-5.17a4.08,4.08,0,0,1,3-1.11,3.68,3.68,0,0,1,3,1.23v-5.6h3.07V77.34Zm-2.17-9.68c-1.84,0-2.08,1.53-2.08,3.52s.24,3.54,2.08,3.54,2.1-1.56,2.1-3.54S115.14,67.66,113.3,67.66Z"/><path class="a" d="M128.66,68.39a2.05,2.05,0,0,0-3.61,1.53v7.41H122V65h3v1.18a4.16,4.16,0,0,1,3.09-1.32,3.71,3.71,0,0,1,2.9,1.16Z"/><path class="a" d="M134.49,72.15a2.52,2.52,0,0,0,2.69,2.74A3.47,3.47,0,0,0,140,73.73l1.86,1.82a5.78,5.78,0,0,1-4.67,1.94c-2.91,0-5.69-1.32-5.69-6.3,0-4,2.17-6.28,5.36-6.28,3.42,0,5.36,2.46,5.36,5.95v1.3Zm4.39-3.42a2.29,2.29,0,0,0-4.11,0,3,3,0,0,0-.28,1.32h4.67A3,3,0,0,0,138.88,68.72Z"/><polygon class="b" points="155 88.51 0.2 88.51 0.2 84.28 155 84.28 155 88.51 155 88.51"/><path class="a" d="M55.8,15.38h6.6V11.15H55.8Zm78.57-4.23h-55v4.23h51.9l8,26.68h4.42Z"/><path class="a" d="M0,106.9V95.28H2.11V106.9Z"/><path class="a" d="M10.66,106.9v-5.11a1.36,1.36,0,0,0-1.4-1.54,1.37,1.37,0,0,0-1.41,1.54v5.11H5.74V98.45H7.8v.78a2.89,2.89,0,0,1,2.11-.88,2.75,2.75,0,0,1,2,.75,3.13,3.13,0,0,1,.86,2.4v5.4Z"/><path class="a" d="M19.09,107a4.61,4.61,0,0,1-3.6-1.22l1.38-1.38a3,3,0,0,0,2.25.79c.73,0,1.49-.24,1.49-.88,0-.42-.21-.71-.89-.78l-1.36-.13c-1.49-.15-2.43-.81-2.43-2.37,0-1.77,1.54-2.69,3.26-2.69a4.54,4.54,0,0,1,3.23,1l-1.3,1.31a2.91,2.91,0,0,0-2-.57c-.84,0-1.2.39-1.2.81s.24.67.88.73l1.33.13c1.67.16,2.51,1,2.51,2.48C22.67,106.11,21.08,107,19.09,107Z"/><path class="a" d="M31.92,106.24a2.83,2.83,0,0,1-2,.76,2.48,2.48,0,0,1-2-.84V110H25.72V98.45h2v.79a2.55,2.55,0,0,1,2.11-.89,2.83,2.83,0,0,1,2,.76c.81.83.88,2.14.88,3.55S32.73,105.41,31.92,106.24Zm-2.66-6c-1.27,0-1.43,1.05-1.43,2.42s.16,2.43,1.43,2.43,1.43-1.07,1.43-2.43S30.52,100.25,29.26,100.25Z"/><path class="a" d="M36,97V95.28h2.16V97Zm0,9.9V98.69h2.11v8.21Z"/><path class="a" d="M46.41,100.75a1.41,1.41,0,0,0-2.48,1.06v5.1H41.82V98.45h2.06v.81A2.87,2.87,0,0,1,46,98.35a2.55,2.55,0,0,1,2,.8Z"/><path class="a" d="M51.65,103.33a1.73,1.73,0,0,0,1.85,1.88,2.39,2.39,0,0,0,1.91-.8l1.28,1.25A4,4,0,0,1,53.48,107c-2,0-3.91-.91-3.91-4.33,0-2.76,1.49-4.32,3.68-4.32,2.35,0,3.68,1.69,3.68,4.09v.89Zm3-2.35a1.58,1.58,0,0,0-2.82,0,2.06,2.06,0,0,0-.19.91h3.21A2.06,2.06,0,0,0,54.67,101Zm-.84-3.88H52.41l1-2.76h2.22Z"/><path class="a" d="M61.82,103.33a1.73,1.73,0,0,0,1.85,1.88,2.39,2.39,0,0,0,1.91-.8l1.28,1.25A4,4,0,0,1,63.65,107c-2,0-3.91-.91-3.91-4.33,0-2.76,1.49-4.32,3.68-4.32,2.35,0,3.68,1.69,3.68,4.09v.89Zm3-2.35A1.58,1.58,0,0,0,62,101a2.08,2.08,0,0,0-.19.91H65A2.06,2.06,0,0,0,64.84,101Z"/><path class="a" d="M73.11,107a4.61,4.61,0,0,1-3.6-1.22l1.38-1.38a3,3,0,0,0,2.25.79c.73,0,1.49-.24,1.49-.88,0-.42-.21-.71-.89-.78l-1.36-.13c-1.49-.15-2.43-.81-2.43-2.37,0-1.77,1.54-2.69,3.26-2.69a4.54,4.54,0,0,1,3.23,1l-1.3,1.31a2.91,2.91,0,0,0-2-.57c-.84,0-1.2.39-1.2.81s.24.67.88.73l1.33.13c1.67.16,2.51,1,2.51,2.48C76.69,106.11,75.1,107,73.11,107Z"/><path class="a" d="M91,106.24a2.83,2.83,0,0,1-2,.76,2.48,2.48,0,0,1-2-.84V110H84.78V98.45h2v.79a2.55,2.55,0,0,1,2.11-.89,2.83,2.83,0,0,1,2,.76c.81.83.88,2.14.88,3.55S91.79,105.41,91,106.24Zm-2.66-6c-1.27,0-1.43,1.05-1.43,2.42s.16,2.43,1.43,2.43,1.43-1.07,1.43-2.43S89.58,100.25,88.32,100.25Z"/><path class="a" d="M99.48,106.9v-.73a2.57,2.57,0,0,1-2.08.81,2.93,2.93,0,0,1-2.16-.75,2.71,2.71,0,0,1-.7-1.9c0-1.35.93-2.45,2.92-2.45h2v-.42c0-.92-.45-1.33-1.57-1.33a1.87,1.87,0,0,0-1.62.73L94.9,99.55a3.54,3.54,0,0,1,3-1.2c2.39,0,3.6,1,3.6,3v5.57Zm0-3.57H97.82c-.84,0-1.25.34-1.25,1s.4,1,1.28,1a1.61,1.61,0,0,0,1.25-.4,1.31,1.31,0,0,0,.32-1.07Z"/><path class="a" d="M109.68,100.75a1.41,1.41,0,0,0-2.48,1.06v5.1h-2.11V98.45h2.06v.81a2.87,2.87,0,0,1,2.13-.91,2.55,2.55,0,0,1,2,.8Z"/><path class="a" d="M122.44,106.9h-1.66l-3.12-8.45h2.22l1.72,5.23,1.7-5.23h2.22Z"/><path class="a" d="M133.74,106a3.53,3.53,0,0,1-2.63,1,3.49,3.49,0,0,1-2.61-1,4.34,4.34,0,0,1-1-3.29,4.3,4.3,0,0,1,1-3.28,3.82,3.82,0,0,1,5.24,0,4.3,4.3,0,0,1,1,3.28C134.7,104.19,134.52,105.16,133.74,106Zm-1.64-5.34a1.48,1.48,0,0,0-2,0,4.56,4.56,0,0,0,0,4.1,1.48,1.48,0,0,0,2,0,4.56,4.56,0,0,0,0-4.1Z"/><path class="a" d="M142.85,106.9v-.78a2.89,2.89,0,0,1-2.11.88,2.75,2.75,0,0,1-2-.75,3.13,3.13,0,0,1-.86-2.4v-5.4H140v5.11a1.41,1.41,0,1,0,2.81,0V98.45h2.11v8.45Z"/><path class="a" d="M151.34,107a4.61,4.61,0,0,1-3.6-1.22l1.38-1.38a3,3,0,0,0,2.25.79c.73,0,1.49-.24,1.49-.88,0-.42-.21-.71-.89-.78l-1.36-.13c-1.49-.15-2.43-.81-2.43-2.37,0-1.77,1.54-2.69,3.26-2.69a4.54,4.54,0,0,1,3.23,1l-1.3,1.31a2.91,2.91,0,0,0-2-.57c-.84,0-1.2.39-1.2.81s.24.67.88.73l1.33.13c1.67.16,2.51,1,2.51,2.48C154.92,106.11,153.33,107,151.34,107Z"/></svg>