<svg width="48.183" xmlns="http://www.w3.org/2000/svg" height="48.183" viewBox="-0.091 -0.091 48.183 48.183" style="-webkit-print-color-adjust:exact" fill="none"><g class="header__logoLinkSvg" style="fill:#7A8087"><path d="M12.711 35.849h24.657c.366 0 .663-.291.663-.651v-1.782c0-.36-.297-.651-.663-.651H10.239c-.365 0-.663.291-.663.651v13.931c0 .36.296.651.663.651h27.129c.366 0 .663-.291.663-.651v-1.781c0-.361-.297-.652-.663-.652H12.712v-2.988h24.419c.367 0 .663-.291.663-.652v-1.781c0-.36-.296-.652-.663-.652H12.714l-.003-2.992Z" style="fill:#7A8087;fill-opacity:1" class="fills"/><g class="strokes"><path d="M12.711 35.849h24.657c.366 0 .663-.291.663-.651v-1.782c0-.36-.297-.651-.663-.651H10.239c-.365 0-.663.291-.663.651v13.931c0 .36.296.651.663.651h27.129c.366 0 .663-.291.663-.651v-1.781c0-.361-.297-.652-.663-.652H12.712v-2.988h24.419c.367 0 .663-.291.663-.652v-1.781c0-.36-.296-.652-.663-.652H12.714l-.003-2.992Z" style="fill:none;stroke-width:.182857" class="stroke-shape"/></g><path d="M.664 16.312c-.368 0-.664.292-.664.652v14.064c.001.36.297.651.664.651h12.643c4.255 0 7.857-3.271 7.983-7.451.132-4.343-3.424-7.916-7.815-7.916Zm2.411 3.022h10.4c2.677 0 4.842 2.189 4.74 4.841-.098 2.524-2.288 4.482-4.856 4.482H3.075Z" style="fill:#7A8087;fill-opacity:1" class="fills"/><g class="strokes"><path d="M.664 16.312c-.368 0-.664.292-.664.652v14.064c.001.36.297.651.664.651h12.643c4.255 0 7.857-3.271 7.983-7.451.132-4.343-3.424-7.916-7.815-7.916Zm2.411 3.022h10.4c2.677 0 4.842 2.189 4.74 4.841-.098 2.524-2.288 4.482-4.856 4.482H3.075Z" style="fill:none;stroke-width:.182857" class="stroke-shape"/></g><path d="M20.195.012c-.367 0-.663.293-.663.652v13.918h-.002c0 .36.298.652.664.652h1.812c.367 0 .663-.293.663-.652v-3.06c0-.36.298-.651.664-.651h8.593l2.666 4.062c.121.185.331.297.556.297h2.156c.524 0 .84-.571.556-1.004l-2.654-4.047c1.7-.934 2.849-2.722 2.837-4.769-.017-2.969-2.621-5.398-5.644-5.398Zm2.475 3.085h9.765c1.2 0 2.276.834 2.447 1.999.212 1.446-.931 2.693-2.362 2.693h-9.851.001Z" style="fill:#7A8087;fill-opacity:1" class="fills"/><g class="strokes"><path d="M20.195.012c-.367 0-.663.293-.663.652v13.918h-.002c0 .36.298.652.664.652h1.812c.367 0 .663-.293.663-.652v-3.06c0-.36.298-.651.664-.651h8.593l2.666 4.062c.121.185.331.297.556.297h2.156c.524 0 .84-.571.556-1.004l-2.654-4.047c1.7-.934 2.849-2.722 2.837-4.769-.017-2.969-2.621-5.398-5.644-5.398Zm2.475 3.085h9.765c1.2 0 2.276.834 2.447 1.999.212 1.446-.931 2.693-2.362 2.693h-9.851.001Z" style="fill:none;stroke-width:.182857" class="stroke-shape"/></g><path d="M10.757 0c-.296-.002-.558.189-.647.472L5.818 14.403l-.005-.001c-.129.418.189.84.635.84h1.894c.289.001.546-.186.634-.462l.565-1.831c.086-.28.349-.471.647-.471H14.1c.286-.002.542.177.639.446l.662 1.88c.095.265.346.44.627.439h1.899c.465 0 .791-.449.639-.88L13.665.439c-.094-.265-.346-.441-.626-.439Zm1.225 5.476c.075-.001.152.04.181.125l1.336 3.796h-2.861v-.001l1.168-3.789c.026-.086.1-.129.176-.131Z" style="fill:#7A8087;fill-opacity:1" class="fills"/><g class="strokes"><path d="M10.757 0c-.296-.002-.558.189-.647.472L5.818 14.403l-.005-.001c-.129.418.189.84.635.84h1.894c.289.001.546-.186.634-.462l.565-1.831c.086-.28.349-.471.647-.471H14.1c.286-.002.542.177.639.446l.662 1.88c.095.265.346.44.627.439h1.899c.465 0 .791-.449.639-.88L13.665.439c-.094-.265-.346-.441-.626-.439Zm1.225 5.476c.075-.001.152.04.181.125l1.336 3.796h-2.861v-.001l1.168-3.789c.026-.086.1-.129.176-.131Z" style="fill:none;stroke-width:.182857" class="stroke-shape"/></g><path d="M42.205 3.083h5.127c.366 0 .663-.291.663-.651V.652c0-.361-.297-.652-.663-.652H39.73c-.366 0-.663.291-.663.652v13.93c0 .359.297.652.663.652h7.602c.366 0 .663-.291.663-.652v-1.781c0-.359-.297-.652-.663-.652h-5.127V9.161h4.881c.367 0 .664-.291.664-.651V6.728c0-.359-.297-.651-.664-.651h-4.881Z" style="fill:#7A8087;fill-opacity:1" class="fills"/><g class="strokes"><path d="M42.205 3.083h5.127c.366 0 .663-.291.663-.651V.652c0-.361-.297-.652-.663-.652H39.73c-.366 0-.663.291-.663.652v13.93c0 .359.297.652.663.652h7.602c.366 0 .663-.291.663-.652v-1.781c0-.359-.297-.652-.663-.652h-5.127V9.161h4.881c.367 0 .664-.291.664-.651V6.728c0-.359-.297-.651-.664-.651h-4.881Z" style="fill:none;stroke-width:.182857" class="stroke-shape"/></g><path d="M.663 15.233h3.61c.365 0 .663-.292.663-.652V12.8c0-.359-.297-.652-.663-.652H3.138V.652C3.138.291 2.841 0 2.474 0H.663C.297 0 0 .291 0 .652v13.93c0 .359.296.652.663.651Z" style="fill:#7A8087;fill-opacity:1" class="fills"/><g class="strokes"><path d="M.663 15.233h3.61c.365 0 .663-.292.663-.652V12.8c0-.359-.297-.652-.663-.652H3.138V.652C3.138.291 2.841 0 2.474 0H.663C.297 0 0 .291 0 .652v13.93c0 .359.296.652.663.651Z" style="fill:none;stroke-width:.182857" class="stroke-shape"/></g><path d="M47.332 44.915H39.73c-.366 0-.663.292-.663.652v1.781c0 .361.297.652.663.652h7.602c.366 0 .663-.291.663-.652v-1.781c0-.36-.297-.652-.663-.652Z" style="fill:#7A8087;fill-opacity:1" class="fills"/><g class="strokes"><path d="M47.332 44.915H39.73c-.366 0-.663.292-.663.652v1.781c0 .361.297.652.663.652h7.602c.366 0 .663-.291.663-.652v-1.781c0-.36-.297-.652-.663-.652Z" style="fill:none;stroke-width:.182857" class="stroke-shape"/></g><path d="M30.12 16.135c-4.41 0-7.999 3.526-7.999 7.859 0 4.334 3.589 7.86 7.999 7.86h.105c4.41 0 7.999-3.525 7.999-7.86 0-4.333-3.588-7.859-7.999-7.859Zm-.004 3.027h.109c2.712 0 4.919 2.169 4.919 4.832 0 2.665-2.209 4.832-4.919 4.832h-.109c-2.711 0-4.916-2.167-4.916-4.832s2.206-4.832 4.916-4.832Z" style="fill:#7A8087;fill-opacity:1" class="fills"/><g class="strokes"><path d="M30.12 16.135c-4.41 0-7.999 3.526-7.999 7.859 0 4.334 3.589 7.86 7.999 7.86h.105c4.41 0 7.999-3.525 7.999-7.86 0-4.333-3.588-7.859-7.999-7.859Zm-.004 3.027h.109c2.712 0 4.919 2.169 4.919 4.832 0 2.665-2.209 4.832-4.919 4.832h-.109c-2.711 0-4.916-2.167-4.916-4.832s2.206-4.832 4.916-4.832Z" style="fill:none;stroke-width:.182857" class="stroke-shape"/></g><path d="M7.889 32.758H.663c-.367 0-.663.292-.663.652v1.795c0 .359.296.651.663.651h2.076v11.492c0 .361.296.652.663.652h1.751c.365 0 .663-.291.663-.652V35.856h2.076c.365 0 .663-.292.663-.652v-1.796c0-.36-.296-.651-.666-.65Z" style="fill:#7A8087;fill-opacity:1" class="fills"/><g class="strokes"><path d="M7.889 32.758H.663c-.367 0-.663.292-.663.652v1.795c0 .359.296.651.663.651h2.076v11.492c0 .361.296.652.663.652h1.751c.365 0 .663-.291.663-.652V35.856h2.076c.365 0 .663-.292.663-.652v-1.796c0-.36-.296-.651-.666-.65Z" style="fill:none;stroke-width:.182857" class="stroke-shape"/></g><path d="M47.995 16.962V39.47c0 2.459-2.073 4.454-4.591 4.385-2.432-.068-4.335-2.093-4.335-4.484V16.962c0-.359.296-.652.663-.652h1.813c.366 0 .663.292.663.652v22.456c0 .674.556 1.31 1.242 1.352.77.047 1.411-.555 1.411-1.3V16.962c0-.359.296-.652.663-.652h1.813c.366 0 .663.292.658.652Z" style="fill:#7A8087;fill-opacity:1" class="fills"/><g class="strokes"><path d="M47.995 16.962V39.47c0 2.459-2.073 4.454-4.591 4.385-2.432-.068-4.335-2.093-4.335-4.484V16.962c0-.359.296-.652.663-.652h1.813c.366 0 .663.292.663.652v22.456c0 .674.556 1.31 1.242 1.352.77.047 1.411-.555 1.411-1.3V16.962c0-.359.296-.652.663-.652h1.813c.366 0 .663.292.658.652Z" style="fill:none;stroke-width:.182857" class="stroke-shape"/></g></g></svg>