<svg width="130.426" xmlns="http://www.w3.org/2000/svg" height="28" style="-webkit-print-color-adjust:exact" fill="none"><g class="logo__image" style="fill:#7A8087"><path fill-rule="evenodd" clip-rule="evenodd" d="M51.856 23.167h-2.395v1.556h2.395c.514 0 .809-.257.809-.794 0-.544-.28-.762-.809-.762Zm0 2.365h-2.395v2.333h-.817v-5.506h3.205c.972 0 1.609.583 1.609 1.57 0 .98-.645 1.603-1.602 1.603Zm6.782-2.194-.871 1.921h1.742l-.871-1.921Zm2.022 4.534-.786-1.796h-2.481l-.816 1.789h-.871l2.504-5.491h.887l2.465 5.506-.902-.008Zm7.053-4.712h-2.457v1.625h2.457c.545 0 .934-.264.934-.848 0-.575-.405-.777-.934-.777Zm.467 2.395 1.143 2.317h-.91l-1.104-2.286h-2.053v2.286h-.809v-5.513h3.266c1.011 0 1.735.575 1.735 1.625 0 .832-.467 1.384-1.268 1.571Zm4.433 2.317h.793v-5.513h-.793v5.513Zm6.54.125c-1.038.044-2.044-.368-2.753-1.128l.56-.544c.708.661 1.346.855 2.31.855.606 0 1.711-.186 1.711-.987 0-.273-.148-.483-.374-.623-.295-.186-.567-.202-1.376-.217l-.832-.016c-.856-.015-1.633-.466-1.633-1.415 0-.801.669-1.338 1.368-1.571 1.118-.304 2.314-.078 3.243.614l-.451.646c-.501-.373-1.109-.578-1.734-.584-.544 0-1.617.171-1.617.895 0 .536.497.63.933.63h.816c.622 0 1.12.007 1.665.334.497.296.777.801.777 1.377 0 1.337-1.532 1.734-2.613 1.734ZM13.298 5.568h-.847C11.346 2.551 10.157.98 7.691.98c-2.644 0-3.787 2.419-3.787 6.587 0 4.339 1.447 6.595 4.34 6.595 2.799 0 4.417-1.789 4.588-5.001h.933c0 3.725-2.1 5.973-5.988 5.973C2.753 15.134 0 11.65 0 7.567S3.43 0 7.45 0c1.595 0 2.955.599 4.161 1.252l.84-.863h.855l-.008 5.179ZM25.92 1.633v.778c-.91 0-1.501.155-1.501.591 0 .218.133.521.405 1.026l1.999 3.827 1.773-3.562c.233-.467.365-.809.365-1.073 0-.506-.638-.809-1.656-.809v-.778h4.852v.778c-1.462.186-1.757.552-2.138 1.322L27.25 9.379v3.453c0 .964.459 1.268 2.154 1.268v.777h-7.411V14.1c1.711 0 2.178-.312 2.178-1.268V9.293l-2.435-4.767c-.7-1.345-1.081-2.1-2.216-2.115v-.778h6.4Zm16.052 6.206c2.1-.101 3.391-.428 3.391-2.644 0-1.594-.809-2.668-2.139-2.668-.677 0-1.252.265-1.252 1.151v4.161Zm7.971 4.122c0 1.897-.793 3.15-2.815 3.15-1.96 0-2.73-1.035-2.87-3.306-.132-2.348-.21-2.986-2.286-3.274v4.044c0 1.089.249 1.532 1.851 1.532v.778h-6.821v-.778c1.431 0 1.89-.311 1.89-1.267V3.678c0-.964-.466-1.267-1.89-1.267v-.778h6.743c3.266 0 4.923 1.314 4.923 3.546 0 2.52-2.497 3.158-4.659 3.197v.039c2.349.311 2.909 1.555 3.329 2.885.622 1.866.715 2.076 1.174 2.076.482 0 .599-.77.661-1.423l.77.008Zm5.094 2.916v-.77c1.423 0 1.89-.311 1.89-1.267V3.678c0-.964-.467-1.267-1.89-1.267v-.778h7.007v.778c-1.423 0-1.89.311-1.89 1.267v9.162c0 .964.467 1.267 1.89 1.267v.778l-7.007-.008Zm12.568 0v-.77c1.423 0 1.889-.311 1.889-1.267V3.678c0-.964-.466-1.267-1.889-1.267v-.778h7.007v.778c-1.424 0-1.89.311-1.89 1.267v9.123c0 .925.35 1.197 1.314 1.197 1.944 0 3.461-2.006 3.966-4.199h.825l-.117 5.078H67.605Zm16.743 0v-.77c1.423 0 1.89-.311 1.89-1.267V3.678c0-.964-.467-1.267-1.89-1.267v-.778h7.007v.778c-1.423 0-1.89.311-1.89 1.267v9.123c0 .925.35 1.197 1.315 1.197 1.944 0 3.46-2.006 3.966-4.199h.824l-.116 5.078H84.348Zm23.308-13.244v.778c-1.501 0-1.96.311-1.96 1.267v7.933c0 1.765 1.501 2.613 2.753 2.613 2.154 0 3.251-1.112 3.251-3.344V3.873c0-.964-.467-1.276-2.061-1.462v-.778h4.868v.778c-1.307.186-1.765.498-1.765 1.462v6.844c0 3.048-1.867 4.394-5.063 4.394-2.139 0-4.946-.848-4.946-3.811V3.678c0-.964-.467-1.267-1.867-1.267v-.778h6.79Zm13.399 8.166c.513 2.1 1.804 4.433 4.254 4.433 1.322 0 2.458-.622 2.458-2.24 0-2.792-7.443-1.828-7.443-6.237 0-2.769 2.053-4.347 4.48-4.347 2.099 0 2.799 1.018 3.313 1.018.388 0 .544-.443.746-.785h.809v4.581h-.77c-.552-2.1-1.789-3.928-3.811-3.928-1.213 0-2.232.669-2.232 1.944 0 3.002 7.567 1.517 7.567 6.502 0 2.877-2.597 4.371-4.736 4.371-2.364 0-3.266-1.004-3.888-1.004-.389 0-.677.521-.825.778h-.777V9.799h.855Z" style="fill:#7A8087;fill-opacity:1" class="fills"/></g></svg>