<svg width="126.109" xmlns="http://www.w3.org/2000/svg" height="40" style="-webkit-print-color-adjust:exact" fill="none"><g xmlns:xlink="http://www.w3.org/1999/xlink" xml:space="preserve" style="fill-rule:evenodd;clip-rule:evenodd;stroke-linejoin:round;stroke-miterlimit:2;fill:#7A8087"><path d="M16.758.861c.344-.345.688-.574 1.147-.746.172-.058.345-.115.517-.115.344 0 .861 0 1.262.115.287.057.574.229.861.401.172.115.345.23.574.402.23.172.402.402.517.631.459.574.746 1.32.918 1.952.115.459.172.861.287 1.377.115.803.057 1.722.057 2.525 0 .574-.057 1.091-.115 1.607-.057.459-.114.861-.172 1.32-.057.344-.172.746-.229 1.09-.058.173-.058.402-.115.574-.058.345-.172.689-.287 1.091-.057.344-.23.688-.344 1.033-.115.401-.287.803-.402 1.205-.058.115-.115.287-.172.459 0 .115.057.229.114.402.058.114.115.229.173.344.114.287.229.516.401.803.345.632.632 1.32.919 1.952.229.516.459 1.033.746 1.549.172.344.344.746.459 1.148.057.172.172.344.229.516 0 .058.115.345.172.345.058 0 .115-.172.115-.23.058-.057.115-.172.172-.229.402-.746.804-1.378 1.206-2.124.172-.344.401-.688.573-1.033.173-.344.402-.688.574-1.09.058-.058.115-.172.115-.23.058-.114 0-.172 0-.229-.057-.23-.057-.402-.115-.574-.057-.344-.114-.746-.229-1.148-.172-.803-.23-1.779-.287-2.64-.058-.287-.058-.746-.058-1.09-.057-.689 0-1.435 0-2.124 0-1.32.173-2.639.345-3.959.057-.46.172-.861.287-1.263.115-.287.229-.574.344-.918.115-.23.23-.459.344-.689.173-.344.402-.689.632-1.033.344-.459.803-.975 1.262-1.377.345-.287.804-.517 1.205-.631.345-.058.746-.115 1.091-.058.229 0 .402.058.574.115.459.172.918.574 1.147 1.033.173.344.287.689.345 1.09.057.287.057.574.057.861 0 .402-.057.689-.057 1.033-.058.402-.172.804-.23 1.148-.115.631-.344 1.32-.516 1.894-.287.746-.517 1.434-.804 2.238-.287.746-.631 1.492-.918 2.181-.287.574-.516 1.09-.803 1.664-.287.574-.574 1.148-.919 1.722-.229.344-.401.746-.631 1.09-.115.172-.229.402-.344.574-.058.115-.115.172-.058.287 0 .115.058.229.058.344.115.746.287 1.435.516 2.181.23.689.459 1.435.746 2.123.23.632.574 1.32.919 1.952.401.746.86 1.492 1.377 2.123.631.803 1.435 1.664 2.238 2.238.287.172.517.287.746.402.23.057.459.172.689.229.115 0 .229.058.344.058.115 0 .344.057.517.057.459.058.918 0 1.377-.057.172 0 .402-.058.574-.115.344-.115.689-.172 1.033-.402.861-.401 1.664-1.205 2.181-2.008.401-.689.688-1.32.86-2.066.115-.402.23-.804.287-1.263.115-.803.173-1.722.115-2.64 0-.401-.115-.803-.172-1.148-.057-.172-.057-.344-.115-.459-.115-.344-.229-.688-.459-1.033-.402-.688-1.148-1.492-1.894-1.836-.401-.172-.803-.402-1.262-.459-.517-.115-1.148-.058-1.665.057-.401.115-.803.287-1.147.517-.172.114-.287.172-.402.287-.23.172-.459.344-.689.574-.344.344-.574.746-.746 1.147-.229.459-.287.574-.287.746-.057.23-.114.517-.114.746v.632c0 .057.057.172.057.287.057.114.115.344.172.459.115.344.287.746.517 1.09.114.172.229.344.401.517.172.172.345.401.402.574.23.746-.976.631-1.32.344-.402-.287-.689-.689-.918-1.091-.172-.344-.287-.746-.344-1.09-.115-.746-.115-1.664.114-2.41.115-.345.23-.689.402-1.033.115-.172.23-.459.402-.689.229-.402.631-.803.975-1.148.345-.287.689-.516 1.033-.746.345-.172.632-.287.976-.401.23-.058.459-.115.689-.173.287-.057.631-.057.975-.057.345 0 .689.057.976.115.229.057.402.115.631.172.402.115.746.287 1.09.459.115.057.287.172.402.23.23.172.459.344.689.573.402.402.746.804.975 1.206.173.344.345.631.46.918.114.287.229.574.287.918.057.172.057.402.114.574.058.402.058.689.115 1.033.057.861-.057 1.722-.229 2.468-.058.401-.173.803-.287 1.205-.115.402-.287.746-.46 1.148-.114.287-.286.631-.516.918-.23.344-.459.689-.746.975-.344.402-.804.804-1.205 1.091-.287.229-.746.459-1.033.631-.287.115-.631.287-.976.344-.459.115-1.033.23-1.549.287-.459 0-.919 0-1.32-.057-.287-.057-.574-.115-.861-.172-.804-.172-1.492-.517-2.181-.976-.402-.287-.803-.574-1.205-.975-.344-.345-.689-.746-.976-1.091-.172-.172-.287-.344-.401-.516-.459-.574-.861-1.263-1.206-1.951-.286-.517-.573-1.033-.746-1.607-.172-.402-.401-.861-.516-1.263-.172-.402-.23-.746-.402-1.09-.057-.172-.115-.287-.115-.459 0-.058-.114-.574-.172-.574-.057 0-.287.459-.287.516-.114.23-.229.459-.401.689-.345.689-.746 1.32-1.148 2.066-.172.287-.345.631-.517.918-.057.172-.172.287-.229.459 0 .058-.058.115-.058.172 0 .058.058.173.058.23.172.402.287.861.459 1.32.115.287.172.574.287.861.229.746.516 1.664.688 2.467.115.402.173.804.287 1.206.115.746.23 1.434.287 2.123.058.689.058 1.435.058 2.181 0 .574-.115 1.205-.23 1.721-.057.23-.115.517-.172.689 0 .057-.057.115-.057.23-.058.229-.173.401-.23.631-.115.229-.229.574-.402.803-.287.402-.631.804-1.09 1.148-.287.23-.631.344-.976.459-.229.058-.574.115-.86.115-.345 0-.574-.115-.804-.23-.459-.229-.861-.688-1.148-1.147-.172-.287-.287-.517-.401-.804-.058-.172-.115-.401-.173-.631-.057-.287-.172-.746-.229-1.033-.115-.172-.115-.574-.172-.976-.058-.516 0-1.033 0-1.549 0-.402.057-.861.114-1.263.058-.229.058-.516.115-.688 0-.115.058-.173.058-.287.114-.632.344-1.32.516-1.894.23-.689.517-1.435.804-2.066.229-.517.459-1.033.803-1.55.172-.287.344-.631.517-.975.057-.058.114-.172.114-.23 0-.057 0-.172-.057-.229-.057-.173-.172-.345-.23-.459-.172-.402-.401-.804-.574-1.206-.172-.574-.401-.975-.631-1.549-.287-.517-.574-1.148-.861-1.664-.229-.402-.401-.861-.631-1.263-.057.057-.115.172-.115.23-.057.057-.057.172-.114.229-.058.172-.115.344-.23.517-.115.287-.287.574-.402.918-.287.631-.631 1.205-.975 1.836-.402.746-.861 1.492-1.378 2.181-.229.287-.459.631-.688.976-.459.574-.919 1.09-1.492 1.664-.517.516-1.033.918-1.55 1.32-.344.229-.689.516-1.09.689-.689.344-1.32.688-2.009.86-.402.115-.803.173-1.263.23-.286.057-.688.115-1.033.057-.459 0-.86-.057-1.262-.057-.861-.057-1.722-.344-2.468-.631-.287-.115-.631-.345-.975-.517-.46-.344-.976-.746-1.378-1.205-.115-.172-.229-.344-.344-.459-.115-.172-.287-.402-.402-.631-.172-.287-.287-.574-.402-.919-.114-.229-.172-.401-.229-.631-.115-.402-.23-.975-.287-1.377v-.861c0-.23.057-.517.115-.746.115-.746.401-1.377.746-1.951.172-.345.402-.689.631-.976.287-.402.746-.861 1.148-1.148.172-.172.402-.287.631-.459.172-.115.402-.229.574-.287.172-.057.402-.172.631-.229.23-.058.459-.115.689-.172.402-.058.918-.115 1.377-.058.287 0 .632.058.861.115.115.057.287.057.402.115.172.057.287.114.459.229.402.23.803.574 1.148.976.516.689.803 1.492.803 2.353 0 .344-.057.746-.115 1.033-.057.172-.114.344-.172.459-.172.402-.401.746-.688 1.09-.287.345-.632.632-1.033.861-.287.172-.574.287-.919.402-.516.172-1.377.229-1.836-.115-.287-.229 0-.516.229-.574.115-.057.23-.057.287-.115.23 0 .402.058.689 0 .459-.057.861-.287 1.263-.631.344-.287.631-.746.746-1.205.057-.115.057-.172.114-.287.058-.172.115-.459.115-.689 0-.287 0-.631-.057-.918 0-.115-.058-.229-.058-.344-.114-.402-.344-.861-.631-1.205-.746-.746-1.779-.976-2.812-.746-.402.287-.746.459-1.205.688-.402.23-.803.517-1.148.861-.459.402-.803.861-1.033 1.263-.229.344-.402.746-.516 1.147-.058.23-.115.46-.172.689-.115.402-.115.804-.115 1.263.057.516.115.975.287 1.434.172.459.344.804.631 1.206.23.401.574.803.918 1.147.345.345.746.689 1.091.919.344.229.688.401.975.516.402.172.861.344 1.263.402.344.057.688.115 1.033.115.287 0 .574 0 .861-.058.114 0 .229-.057.344-.057.803-.115 1.549-.402 2.238-.746.402-.172.689-.402 1.09-.632.402-.229.747-.573 1.091-.918.344-.344.746-.688 1.033-1.033.172-.229.402-.459.574-.688.287-.345.516-.632.746-1.033.516-.804 1.033-1.607 1.492-2.468.287-.517.516-1.033.746-1.55.344-.688.689-1.492.976-2.18.172-.402.344-.804.459-1.148.057-.172-.058-.287-.115-.402-.057-.172-.172-.344-.287-.516-.23-.517-.517-1.033-.746-1.55-.115-.287-.287-.574-.402-.861-.172-.402-.344-.688-.459-1.148-.115-.344-.287-.688-.402-1.09-.114-.344-.287-.746-.344-1.09-.23-.861-.459-1.607-.631-2.468-.058-.287-.115-.631-.115-.918 0-.459 0-.919-.057-1.435 0-.459 0-.976.057-1.377 0-.23.057-.459.115-.689.057-.344.172-.689.344-1.033.057-.115.115-.344.23-.517.172-.229.344-.459.574-.688Zm4.763 5.911c0-.517 0-1.033-.058-1.492-.057-.402-.057-.804-.172-1.205-.057-.402-.172-.746-.344-1.148-.23-.746-.861-1.779-1.779-1.894-.574-.115-.976.057-1.377.402-.287.229-.402.459-.574.746-.115.172-.173.401-.23.574-.057.172-.115.459-.172.688-.057.402-.057.919-.057 1.32.057.517.114 1.091.229 1.55.172.688.402 1.377.631 2.066.287.746.574 1.377.861 2.123.23.574.574 1.148.804 1.722.114.287.287.574.401.861.058.172.173.344.23.516 0 .058.057.115.057.172.058.115.115.058.115-.057.23-.689.459-1.492.631-2.238.115-.402.23-.804.287-1.205.058-.46.172-.919.23-1.378.229-.746.287-1.434.287-2.123Zm11.363-3.616c-.058-.114-.058-.287-.058-.401 0-.115-.057-.23-.057-.345-.057-.172-.172-.401-.287-.574-.287-.459-.746-.688-1.262-.631-.402.058-.804.23-1.148.574-.459.402-.746.861-1.033 1.377-.172.345-.345.689-.459 1.033-.115.402-.23.746-.287 1.148-.115.746-.23 1.55-.287 2.296-.058.803-.058 1.721-.058 2.582 0 .861.058 1.722.115 2.525.058.689.115 1.435.172 2.124 0 .172.058.344.058.516.057 0 .172-.287.229-.344.058-.058.058-.172.115-.23.115-.172.172-.344.287-.516.172-.402.459-.861.631-1.205.23-.517.517-.976.746-1.492.345-.632.632-1.263.919-1.952.401-.861.746-1.779.975-2.754.115-.402.23-.861.287-1.263.057-.516.172-1.033.287-1.664 0-.115.057-.287.057-.402.058-.172.058-.344.058-.402Zm-6.887 30.187c0-.459-.057-.918-.115-1.32-.057-.23-.114-.402-.114-.631-.058-.345-.173-.746-.287-1.091-.287-.803-.517-1.607-.804-2.353-.172-.459-.344-.86-.516-1.262-.058-.23-.172-.459-.287-.631-.058-.115-.058-.173-.115-.058-.057.058-.057.115-.115.172-.115.287-.287.574-.402.804-.114.229-.229.459-.344.688-.172.287-.344.632-.459.919-.115.287-.344.631-.459.918-.115.402-.287.803-.402 1.205-.115.402-.172.689-.229 1.033-.058.23-.115.517-.115.746-.115.861-.115 1.722-.115 2.583 0 .573.057 1.147.23 1.664.114.402.287.861.574 1.262.286.402.688.632 1.147.632.402 0 .689-.058.976-.23.115-.057.287-.172.402-.229.401-.287.746-.746.918-1.148.172-.345.287-.689.402-1.033.114-.402.229-.861.287-1.32 0-.115 0-.287.057-.402-.115-.229-.057-.631-.115-.918ZM62.669 31.679c0 .229 0 .229.287.229h.573c.345 0 .632 0 .746-.057.115-.058.173-.058.23-.287l.057-.344c.058-.058.173-.058.23 0 0 .229-.057.573-.057.86 0 .287.057.632.057.861-.057.058-.172.058-.23 0l-.114-.344c-.058-.172-.115-.287-.287-.344-.115-.058-.345-.058-.689-.058h-.574c-.287 0-.287 0-.287.23v1.205c0 .918 0 1.033.517 1.09h.287c.057.058.057.172 0 .23h-2.239c-.057 0-.057-.172 0-.23h.23c.517-.057.517-.172.517-1.09v-3.157c0-.918 0-1.033-.517-1.09h-.115c-.057-.057-.057-.172 0-.229h3.845v1.147c0 .058-.172.058-.229 0-.058-.401-.172-.688-.632-.803-.172-.058-.459-.058-.86-.058h-.517c-.287 0-.287 0-.287.345l.058 1.894ZM69.154 33.228c0 1.091-.747 1.894-1.837 1.894-1.033 0-1.779-.689-1.779-1.779 0-1.09.803-1.894 1.836-1.894s1.78.689 1.78 1.779Zm-1.837-1.549c-.574 0-.976.574-.976 1.492 0 .803.345 1.664 1.148 1.664.746 0 1.033-.803 1.033-1.492-.115-.689-.401-1.664-1.205-1.664ZM70.359 32.482c0-.344 0-.402-.23-.516l-.057-.058c-.058-.057-.058-.115 0-.172.172-.057.688-.287.861-.402.057 0 .057 0 .114.058v.401c0 .058.058.115.115.115.344-.229.804-.459 1.205-.459.746 0 1.033.517 1.033 1.09v1.493c0 .631 0 .688.345.746h.172c.057.057.057.172 0 .229H72.31c-.057 0-.057-.172 0-.229h.172c.344-.058.344-.115.344-.746v-1.32c0-.517-.229-.861-.803-.861-.344 0-.631.115-.746.287-.115.172-.115.287-.115.516v1.32c0 .631 0 .689.344.746h.173c.057.058.057.172 0 .23h-1.607c-.058 0-.058-.172 0-.23h.172c.344-.057.344-.115.344-.746v-1.492h-.229ZM77.819 33.687c0 .689 0 1.033.23 1.033.115 0 .229-.057.402-.057.057 0 .057.229 0 .287-.345.057-.919.172-1.148.287-.058 0-.115 0-.115-.058v-.459h-.057c-.402.287-.689.402-1.091.402-.975 0-1.607-.746-1.607-1.664 0-1.205.919-2.009 2.124-2.009.287 0 .516.057.574.057.057 0 .057-.057.057-.114v-1.32c0-.517 0-.574-.287-.746l-.057-.058c-.058 0-.058-.172 0-.172.229-.057.631-.172.918-.344.057 0 .057 0 .115.057l-.058 4.878Zm-.688-1.262c0-.172-.058-.23-.115-.345-.115-.172-.402-.344-.746-.344-.804 0-1.205.689-1.205 1.435 0 .803.459 1.549 1.32 1.549.229 0 .516-.115.688-.229.058-.058.058-.172.058-.345v-1.721ZM79.656 32.769c-.23 0-.23 0-.23.23 0 .86.517 1.606 1.435 1.606.287 0 .516-.114.803-.401.115 0 .172 0 .172.115-.287.573-.918.803-1.377.803-.574 0-1.033-.23-1.262-.574-.287-.344-.345-.746-.345-1.148 0-1.09.689-1.951 1.779-1.951.746 0 1.263.517 1.263 1.033 0 .115 0 .172-.058.23 0 .057-.172.057-.516.057h-1.664Zm.574-.287c.631 0 .86-.057.918-.057 0 0 .057-.058.057-.172 0-.23-.172-.574-.689-.574-.516 0-.975.459-.975.746 0 0 0 .057.057.057h.632Zm0-1.435c-.058 0-.115-.057-.173-.114l.746-1.435c.058-.115.115-.23.23-.23.057 0 .172.058.287.115.115.057.172.172.172.23 0 .057-.057.172-.172.229l-1.09 1.205ZM83.156 32.769c-.229 0-.229 0-.229.23 0 .86.516 1.606 1.435 1.606.286 0 .516-.114.803-.401.115 0 .172 0 .172.115-.287.573-.918.803-1.377.803-.574 0-1.033-.23-1.263-.574-.287-.344-.344-.746-.344-1.148 0-1.09.689-1.951 1.779-1.951.746 0 1.263.517 1.263 1.033 0 .115 0 .172-.058.23-.057.057-.172.057-.516.057h-1.665Zm.517-.287c.631 0 .861-.057.918-.057 0 0 .057-.058.057-.172 0-.23-.172-.574-.688-.574-.517 0-.976.459-.976.746 0 0 0 .057.058.057h.631ZM88.78 32.769c-.229 0-.229 0-.229.23 0 .86.516 1.606 1.435 1.606.287 0 .516-.114.803-.401.115 0 .172 0 .172.115-.287.573-.918.803-1.377.803-.574 0-1.033-.23-1.263-.574-.287-.344-.344-.746-.344-1.148 0-1.09.689-1.951 1.779-1.951.746 0 1.263.517 1.263 1.033 0 .115 0 .172-.058.23 0 .057-.172.057-.516.057H88.78Zm.574-.287c.632 0 .861-.057.919-.057 0 0 .057-.058.057-.172 0-.23-.172-.574-.689-.574-.516 0-.975.459-.975.746 0 0 0 .057.057.057h.631ZM91.994 32.482c0-.344 0-.402-.229-.516l-.058-.058c-.057-.057-.057-.115 0-.172.23-.057.689-.287.861-.402.058 0 .058 0 .115.058v.401c0 .058.057.115.115.115.344-.229.803-.459 1.205-.459.746 0 1.033.517 1.033 1.09v1.493c0 .631 0 .688.344.746h.172c.058.057.058.172 0 .229h-1.607c-.057 0-.057-.172 0-.229h.173c.344-.058.344-.115.344-.746v-1.32c0-.517-.23-.861-.803-.861-.345 0-.632.115-.747.287-.114.172-.114.287-.114.516v1.32c0 .631 0 .689.344.746h.172c.058.058.058.172 0 .23h-1.607c-.057 0-.057-.172 0-.23h.172c.345-.057.345-.115.345-.746v-1.492h-.23ZM52.855 23.702c-1.32-.115-2.697-.115-4.017-.115-.172 0-.23 0-.287-.115-.057-.115-.057-.23-.057-.344.975-.23 1.319-.402 1.492-1.722.172-1.263.287-3.501.516-6.485l.344-5.394c.115-1.435-.229-1.607-1.664-1.837 0-.115 0-.229.115-.344 0-.058.057-.058.115-.058.115 0 1.434.058 2.066.058h1.434c0 .516.173.975.287 1.262 1.091 2.812 3.329 7.863 4.764 10.789.057.173.172.115.229 0 1.607-3.271 3.616-8.091 4.821-10.903.172-.287.229-.632.229-1.206 1.148 0 2.181 0 3.673-.057.058.115 0 .287 0 .402-1.377.229-1.549.516-1.607 1.262-.057.861-.057 2.525 0 5.969.058 2.64.173 5.107.173 6.198.057 1.32.172 1.607 1.147 1.836.23.058.287.172.287.402 0 .057-.057.115-.172.115h-1.721c-.574 0-2.181.057-3.157.172V23.3c0-.172.058-.172.172-.23.976-.287 1.033-.401 1.148-1.492.057-.688.057-2.008 0-11.248 0-.172-.057-.23-.115-.115-.401.746-2.467 5.911-3.558 8.551-1.09 2.583-1.435 3.616-1.549 3.903-.23.573-.345.803-.517.803-.115 0-.229-.057-.287-.23-.172-.286-.631-1.377-1.09-2.525-2.124-5.165-3.616-8.723-4.362-10.502-.172 2.066-.344 5.51-.401 7.862-.058 2.813 0 3.731.114 4.19.115.516.517.689 1.378.918.229.057.229.057.287.172v.345h-.23ZM74.491 14.921c.975 0 1.721 0 2.295-.057 1.32-.058 1.607-.172 2.124-1.492.057-.115.229-.173.401-.115-.057.631-.172 1.607-.172 2.468 0 .918.058 1.377.115 1.893-.057.058-.115.058-.23.058-.114 0-.172-.058-.229-.172-.115-.23-.23-.632-.402-.976-.229-.402-.574-.631-1.435-.689-.516-.057-1.32-.057-2.41-.057-.746 0-.918.057-1.033.057-.115 0-.172.115-.229.172-.058.115-.173 1.32-.173 3.386 0 1.55 0 2.296.173 2.64.172.574.688.632 2.467.632 3.329 0 3.845-.345 4.821-3.042.115-.057.229 0 .344 0 .058 0 .058.057.058.172-.115 1.435-.402 2.755-.689 3.501-.115.172-.172.229-.287.229h-1.09c-.746 0-2.239-.057-3.788-.057-2.066 0-3.96.115-5.682.172-.057 0-.057-.115-.057-.344 0-.058.057-.115.115-.115.861-.287 1.148-.459 1.148-.861 0-.287.172-2.123.172-4.763v-4.993c0-2.984-.058-4.017-.115-4.189-.057-.172-.115-.23-.344-.287-.287-.115-.632-.23-1.148-.345-.057 0-.057-.057 0-.114v-.172c0-.115 0-.173.115-.173h1.951c.516.058 1.148.058 1.894.058h1.664c.803 0 1.607-.058 2.296-.058.746-.057 1.434-.057 2.008-.057.345 0 .459 0 .574.115.115.115.172.229.115.574-.23 1.434-.23 2.41-.23 2.869-.287 0-.344-.057-.401-.172-.46-1.722-.804-2.468-2.353-2.468h-1.55c-1.033 0-1.836.058-2.066.115-.287 0-.287.23-.287.803v5.452c0 .287.058.459.287.459l1.263-.057ZM88.551 14.921c.976 0 1.722 0 2.295-.057 1.378-.058 1.607-.172 2.124-1.492.057-.115.229-.173.402-.115-.058.631-.173 1.607-.173 2.468 0 .918.058 1.377.173 1.893-.058.058-.115.058-.23.058s-.172-.058-.23-.172c-.114-.23-.229-.632-.401-.976-.287-.402-.632-.631-1.435-.689-.516-.057-1.32-.057-2.41-.057-.689 0-.919.057-1.033.057-.115 0-.172.115-.23.172-.057.115-.172 1.32-.172 3.386 0 1.55 0 2.296.172 2.64.172.574.689.632 2.525.632 3.271 0 3.845-.345 4.821-3.042.115-.057.229 0 .344 0 .058 0 .058.057.058.172-.115 1.435-.402 2.755-.689 3.501-.115.172-.172.229-.287.229h-1.09c-.746 0-2.239-.057-3.788-.057-2.066 0-3.96.115-5.624.172-.058 0-.058-.115-.058-.344 0-.058.058-.115.115-.115.918-.287 1.148-.459 1.148-.861 0-.287.172-2.123.172-4.763v-4.993c0-2.984-.057-4.017-.115-4.189-.057-.172-.114-.23-.344-.287-.287-.115-.631-.23-1.148-.345-.057 0-.057-.057 0-.114v-.172c0-.115 0-.173.115-.173h1.951c.517.058 1.148.058 1.894.058h1.722c.803 0 1.549-.058 2.295-.058.746-.057 1.435-.057 2.009-.057.344 0 .459 0 .574.115.115.115.172.229.115.574-.23 1.434-.23 2.41-.23 2.869-.287 0-.344-.057-.402-.172-.459-1.722-.803-2.468-2.353-2.468h-1.549c-1.033 0-1.779.058-2.066.115-.287 0-.287.23-.287.803 0 1.952 0 3.673.057 5.452 0 .287.058.459.23.459l1.033-.057ZM97.446 7.518c0-.115 0-.172.172-.172.976 0 2.066 0 3.042-.115 1.148-.115 1.722-.115 2.123-.115 1.32 0 2.755.23 4.018 1.148.975.689 1.606 2.009 1.606 3.271 0 2.124-1.549 3.099-2.295 3.673-.115.057-.172.287-.115.459.115.574.631 2.181 1.664 3.96s2.124 2.927 3.616 3.788c.172.057.172.401.172.459-.057.057-.115.115-.459.115-1.55-.115-3.042-.747-4.304-2.066-1.091-1.033-1.664-2.296-2.411-4.19-.401-.975-.688-1.377-1.836-1.377-.574 0-.861 0-1.033.057-.115.058-.23.172-.23.402 0 2.238.058 3.73.115 5.05 0 .459.115.631.287.746.172.172.861.402 1.32.517 0 .172-.057.287-.115.401 0 .058-.114.058-.229.058h-2.927c-.803 0-1.263.057-1.664.057-.23 0-.345 0-.345-.057-.057-.115-.114-.23-.114-.345.459-.172.975-.344 1.205-.573.287-.402.344-1.779.344-5.567v-3.214c0-1.779-.057-3.73-.057-4.763 0-.689-.115-.804-1.435-1.091l-.115-.516Zm8.551 4.075c0-2.009-1.262-3.788-3.041-3.788-.689 0-.976.057-1.32.229-.23.115-.287.287-.345.46-.115.746-.115 2.123-.172 4.476 0 2.468 0 2.582.172 2.64.115.057.402.057.746.057 1.492 0 2.525-.287 3.157-1.148.516-.688.803-1.549.803-2.926ZM115.524 23.185c.344-.057.803-.172 1.147-.287.574-.172.919-.402.976-1.033.057-.287.115-2.008.115-5.681v-2.583c0-4.648 0-5.394-.058-5.394h-1.549c-2.009 0-3.099.229-3.443.344-.345.172-.632.861-.976 1.836-.057.115-.115.115-.23.058-.172-.115-.172-.345-.172-.517.172-.516.632-1.779 1.148-3.615.057-.058.115-.058.23 0 .114 0 .114.057.114.229 0 .517.058.689.23.689.172.057.516.057 1.033.057.746.058 1.607.058 3.615.058 2.583 0 4.936-.058 6.141-.115.976 0 1.205-.057 1.435-.172.229-.115.287-.345.459-.631.057-.058.057-.115.115-.115.057 0 .114.057.229.115.058.057 0 .172 0 .286-.402 1.32-.402 1.894-.516 3.386 0 .115-.058.23-.115.23h-.172c-.115 0-.115-.115-.172-.287-.058-.287-.058-.918-.115-1.263 0-.229-.115-.344-.402-.459-.229-.057-1.09-.172-2.984-.172h-1.091c-.286 0-.344.058-.344.459 0 .345-.115 1.779-.115 4.993v2.755c0 3.615.058 4.82.115 5.28.058.401.115.688.459.86.402.287 1.091.402 1.837.517.057 0 .057.115.057.172l-.057.172c-.058.115-.115.172-.287.172s-.689 0-1.263-.057h-1.894c-.631 0-1.377 0-1.951.057-.631 0-1.09.058-1.205.058-.172 0-.23-.058-.287-.23l-.057-.172ZM74.376 4.419c-.172-.057-.287-.344-.23-.631L77.36.861c.287-.23.459-.345.631-.345.173 0 .46.173.632.574.229.459.229.861.172 1.033-.115.115-.23.23-.574.402l-3.845 1.894ZM99.857 30.969c0-.574 0-.803-.402-.803l-.402-.058c-.057-.057-.057-.172 0-.172.746-.114 1.205-.344 1.435-.516.057 0 .057 0 .057.057 0 .172-.057.574-.057 1.091v3.386c0 .688 0 .803.402.86h.344c.057.058.057.173 0 .23h-2.066c-.058 0-.058-.172 0-.23h.344c.345 0 .402-.172.402-.86l-.057-2.985ZM106.702 30.108c-.459 0-.689 0-.918.46-.058 0-.173 0-.173-.058.115-.229.23-.631.287-.918h3.559c.057 0 .057.057.057.057-.23.402-.517.861-.804 1.492l-2.238 4.477c-.172 0-.287-.058-.287-.172l2.468-4.993c.115-.287.115-.345-.172-.345h-1.779ZM110.815 30.108c-.459 0-.688 0-.918.46-.057 0-.172 0-.172-.058.115-.229.23-.631.287-.918h3.558c.058 0 .058.057.058.057-.23.402-.517.861-.804 1.492l-2.238 4.477c-.172 0-.287-.058-.287-.172l2.468-4.993c.114-.287.114-.345-.172-.345h-1.78ZM102.675 30.223c.919-.861 2.009-1.148 2.526-1.262.057.057.057.114.057.172-.574.172-1.32.459-1.951 1.148-.746.803-.976 1.721-.976 2.64 0 1.033.344 1.951 1.205 1.951.632 0 .976-.574.976-1.32 0-.746-.344-1.435-1.09-1.435-.173 0-.287.057-.402.057-.058 0-.058-.114 0-.172.229-.172.516-.229.861-.229.86 0 1.377.688 1.377 1.549 0 1.033-.746 1.837-1.836 1.837-1.263 0-1.894-.976-1.894-2.181-.058-.746.229-1.837 1.147-2.755Z" style="fill-rule:nonzero" class="fills"/></g></svg>