<svg width="200" height="200" viewBox="0 0 200 200" fill="none" xmlns="http://www.w3.org/2000/svg">
<path fill-rule="evenodd" clip-rule="evenodd" d="M38 69.0536C38 62.8252 41.5247 57.1314 47.1047 54.346L92.3988 31.736C97.0357 29.4213 102.494 29.4213 107.131 31.736L152.425 54.346C158.005 57.1314 161.529 62.8252 161.529 69.0536V130.946C161.529 137.175 158.005 142.869 152.425 145.654L107.131 168.264C102.494 170.579 97.0357 170.579 92.3988 168.264L47.1047 145.654C41.5247 142.869 38 137.175 38 130.946V69.0536ZM91.0299 71.676C86.2057 66.8519 86.2057 59.0305 91.0299 54.2063C95.854 49.3822 103.675 49.3822 108.5 54.2063C113.324 59.0305 113.324 66.8519 108.5 71.676C103.675 76.5002 95.854 76.5002 91.0299 71.676ZM80.548 96.6259C69.935 107.272 69.935 124.534 80.548 135.18C91.1611 145.826 108.368 145.826 118.981 135.18C129.594 124.534 129.594 107.272 118.981 96.6259C108.368 85.9795 91.1611 85.9795 80.548 96.6259Z" fill="#6875FF"/>
</svg>
