<svg viewBox="0 0 200 200" xmlns="http://www.w3.org/2000/svg" xml:space="preserve" style="fill-rule:evenodd;clip-rule:evenodd;stroke-linejoin:round;stroke-miterlimit:2"><path d="M40.288 1.566c-.415-.492-.933-.886-1.516-1.157-.584-.27-1.219-.41-1.862-.409H4.792c-.643 0-1.278.139-1.861.41-.583.27-1.1.664-1.515 1.155-.415.49-.718 1.065-.888 1.685-.17.62-.202 1.269-.095 1.903l8.579 43.169c.175 1.028.709 1.962 1.507 2.635.798.672 1.808 1.04 2.852 1.038h14.917c1.043.002 2.052-.366 2.85-1.039.797-.673 1.33-1.606 1.504-2.634l8.643-43.148c.106-.633.074-1.282-.096-1.901-.169-.62-.471-1.195-.885-1.686l-.016-.021ZM27.88 47.056H13.864L5.419 4.944H36.32l-8.44 42.112Z" style="fill:#fff;fill-rule:nonzero" transform="translate(47.8482 35) scale(2.50026)"/></svg>