<svg width="79.898" xmlns="http://www.w3.org/2000/svg" height="48" style="-webkit-print-color-adjust:exact" fill="none"><g xmlns:xlink="http://www.w3.org/1999/xlink" xml:space="preserve" style="fill:#7A8087"><path d="M8.267 48h62.98L39.924 16.678Z" style="fill:#7A8087" class="fills"/><path d="m7.064 46.46 4.907-4.787-1.635-1.676-3.082 3.008-5.429-5.567L0 39.219ZM13.048 40.583l5.027-4.906-1.38-1.415-3.193 3.114-1.533-1.571 2.558-2.496-1.444-1.48-2.559 2.495-1.313-1.346 3.087-3.013-1.379-1.414-5.012 4.89ZM29.503 17.324c-2.027-2.078-5.545-1.83-7.239-.177s-2.559 4.949-.166 7.402c2.628 2.694 5.755 1.715 7.449.063 2.499-2.437 1.609-5.593-.044-7.288Zm-1.49 5.865c-1.121 1.094-2.493.797-4.059-.809-1.317-1.349-1.238-2.705-.28-3.639.658-.643 1.995-1.217 3.586.413 1.815 1.861 1.875 2.94.753 4.035ZM35.158 19.05l1.855-1.81-2.79-2.86-1.67-6.949-2.127 2.075 1.106 3.942-3.737-1.376-2.004 1.956 6.371 2.045ZM25.269 28.71s-4.515-1.54-4.729-1.503c-.07.011.969-2.754-1.366-3.98 0 0-1.732-.938-3.466.638l-3.696 3.642 7.125 7.174 1.885-1.838-3.856-3.951 6.232 1.643 1.871-1.825Zm-6.992-.985c-1.048 1.02-1.189 1.101-1.189 1.101s-1.642-1.683-1.701-1.743c-.058-.06 1.175-1.116 1.369-1.306.082-.08.85-.581 1.485.07 0 0 1.083.856.036 1.878ZM34.583 8.8l-1.649-1.662L40.131 0l2.355 2.374-2.592 5.103L45.18 5.09l2.266 2.285-7.197 7.138-1.737-1.751 3.799-3.767-5.197 2.357-1.074-1.083 2.415-5.192ZM47.078 21.398l-4.989-5.03 7.197-7.138 5.004 5.045-1.454 1.443-3.135-3.161-1.173 1.162 2.473 2.494-1.514 1.501-2.458-2.478-1.573 1.559 3.106 3.131ZM63.533 23.594l1.854 1.871-5.446 5.4 3.046 3.071-1.751 1.738-4.901-4.941ZM62.531 36.98l7.197-7.138 1.811 1.825-7.197 7.137ZM67.624 42.115l-1.693-1.707 7.197-7.138 2.458 2.477-2.1 7.411 4.764-4.725 1.648 1.662-7.196 7.138-2.15-2.166 1.851-7.781ZM60.28 20.315l-4.371-4.407-7.212 7.123 1.854 1.869 3.932-3.899-1.415 6.437 1.899 1.914s1.496-4.604 1.542-4.796c0 0 1.622.893 3.401-.637 0 0 1.707-1.663.37-3.604Zm-2.669 2.088s-.919.617-1.728-.199l-1.265-1.336s1.528-1.516 1.721-1.707c0 0 1.177 1.187 1.324 1.335.147.149 1.076.847-.052 1.907Z" class="fills"/></g></svg>