<svg width="136.965" xmlns="http://www.w3.org/2000/svg" height="32" style="-webkit-print-color-adjust:exact" fill="none"><g style="fill:#7A8087"><path d="M43.967 24.344h2.683c.022.002.044-.001.065-.008.021-.008.04-.02.055-.036.016-.015.028-.034.036-.055.007-.021.01-.043.008-.065v-8.706h3.188c.022.002.044-.001.065-.008.021-.008.039-.02.055-.036.016-.015.028-.034.035-.055.008-.021.011-.043.009-.066V12.92c.002-.022-.001-.044-.009-.065-.007-.021-.019-.04-.035-.056-.016-.015-.034-.028-.055-.035-.021-.008-.043-.011-.065-.009h-3.184v-.193c0-1.697.218-2.404 1.556-2.404.358 0 1.012.036 1.329.283-.014-.011.018 0 .089-.011.049.006.098-.006.14-.032l.672-1.893c.014-.047.02-.096.018-.145 0-.018-.012-.061-.104-.144-.8-.482-1.724-.721-2.657-.686-2.571 0-4.06.824-4.06 5.042v.18h-2.25c-.023-.002-.045.001-.065.009-.021.008-.04.02-.055.035-.016.016-.028.035-.036.056-.007.02-.011.042-.009.064v2.39c-.002.022.002.044.009.065.008.021.02.039.036.055.015.016.034.028.055.035.02.008.042.011.065.01h2.25v8.705c-.003.022 0 .045.008.067.007.021.019.04.035.056.016.016.035.029.123.045Zc-.045-.001-.023.002 0 0ZM118.962 24.344h2.683c.022.002.044-.001.064-.009.021-.008.04-.02.056-.035.015-.016.027-.035.035-.056.008-.02.011-.042.009-.064v-8.706h3.186c.022.002.044-.001.065-.008.02-.008.04-.02.056-.036.015-.015.027-.034.035-.055.007-.021.01-.043.008-.066V12.92c.002-.022-.001-.044-.008-.065-.008-.021-.02-.04-.035-.056-.016-.015-.036-.028-.056-.035-.021-.008-.043-.011-.065-.009h-3.18v-.193c0-1.697.216-2.404 1.556-2.404.357 0 1.01.036 1.327.283-.014-.011.018 0 .091-.011.048.006.097-.005.138-.032l.672-1.893c.016-.047.022-.096.02-.145 0-.018-.014-.061-.105-.144-.8-.482-1.723-.72-2.656-.686-2.573 0-4.061.824-4.061 5.042v.18h-2.249c-.023-.002-.045.001-.066.008-.021.008-.04.02-.056.036-.016.015-.028.034-.035.055-.008.021-.011.043-.01.065v2.39c-.001.022.002.044.01.065.007.021.019.04.035.056.016.015.035.027.056.035.021.008.043.011.066.009h2.249v8.705c-.002.022 0 .045.008.066.007.022.019.041.035.057.015.016.035.029.122.045Zc-.045-.001-.022.002 0 0ZM105.732 20.846c0 3.224 2.58 3.703 4.113 3.703.669 0 2.309-.133 3.129-1.364l.279-.419.231 1.433c.021.059.06.109.112.145.052.035.113.053.176.052h1.841c.023.002.045-.001.066-.009.021-.008.04-.02.055-.036.016-.016.028-.035.036-.056.007-.021.01-.043.008-.065v-6.407c0-1.39-.318-3.275-1.838-4.353-1.52-1.078-3.946-1.286-5.936-.527l-.396.158c-.03.012-.328.134-.358.163-.02.012-.036.03-.045.053-.008.022-.009.046-.001.069.009.074.028.146.059.215l.742 1.827c.048.113.113.118.12.118l.043-.018c.653-.26 1.347-.404 2.05-.424 1.762 0 2.504.766 2.504 2.564v.386l-.312-.224c-.55-.394-1.534-.629-2.632-.629-1.503.002-4.046.475-4.046 3.645Zm5.056-1.497c1.311.05 1.729.61 1.948.876l.03.048v1.044l-.054.058c-.699.736-2.003.757-2.015.757-1.885 0-2.281-.831-2.281-1.528 0-.469.31-1.334 2.372-1.255ZM89.756 24.4c4.69 0 8.094-3.525 8.094-8.381s-3.479-8.501-8.094-8.501H83.42c-.023-.002-.045 0-.067.008-.021.007-.041.02-.057.036-.015.015-.027.035-.035.056-.008.021-.01.044-.008.066v16.549c-.002.023.001.045.009.066.007.021.02.04.036.056.015.016.034.028.056.036.021.008.043.011.066.009h6.336Zm-3.468-14.117h2.921c3.196 0 5.606 2.508 5.606 5.827 0 3.253-2.358 5.614-5.606 5.614h-2.921V10.283ZM19.513 17.185c.993-1.003 1.533-2.461 1.519-4.107-.025-3.216-2.121-5.553-4.981-5.553H9.347c-.022-.001-.044.002-.064.01-.021.008-.04.02-.056.035-.028.033-.043.076-.043.12l.133 16.448c-.002.023.002.045.01.066.008.021.02.04.036.056.016.016.035.028.056.036.021.007.044.011.066.009h2.683c.022.001.044-.003.064-.01.021-.008.04-.02.056-.035.029-.033.044-.076.043-.12l-.047-5.579h3.854c.626.006 1.247-.112 1.826-.348.58-.236 1.106-.586 1.549-1.028Zm-7.245-1.399-.043-5.324h3.55c1.073 0 2.225.695 2.241 2.646 0 .88-.241 1.598-.715 2.076-.195.194-.427.347-.682.451-.255.103-.528.155-.803.151h-3.548ZM78.989 24.326c1.034 0 1.351 0 2.182-.284.034-.033.057-.076.066-.122.002-.042-.001-.083-.009-.124l-.499-2.099c-.035-.045-.084-.076-.139-.09-.042-.003-.085 0-.126.011l-.057.018c-.319.049-.641.07-.963.063-1.294 0-1.346-.86-1.346-2.979v-3.24h2.792c.022.002.045-.001.066-.008.021-.008.04-.02.056-.036.016-.015.028-.034.036-.055.008-.021.01-.044.008-.066V12.92c.002-.022 0-.045-.008-.066-.008-.021-.02-.04-.036-.055-.016-.016-.035-.028-.056-.036-.021-.007-.044-.01-.066-.008h-2.792V7.677c.002-.022-.002-.044-.009-.065-.008-.02-.02-.039-.036-.055-.015-.016-.033-.028-.054-.035-.021-.008-.043-.011-.065-.01h-2.683c-.022-.002-.044.001-.065.009-.021.008-.04.02-.056.035-.016.016-.027.035-.035.056-.008.021-.011.043-.008.065v5.084h-1.498c-.022-.002-.044.001-.065.008-.021.008-.04.02-.055.036-.016.015-.028.034-.036.055-.007.021-.01.043-.009.065v2.39c-.001.022.002.044.01.065.008.02.02.039.035.055.016.016.035.028.056.035.02.008.042.011.064.01h1.498v3.904c-.006 4.104 1.553 4.942 3.902 4.942ZM132.02 24.326c1.034 0 1.353 0 2.182-.284.034-.033.058-.076.067-.122.001-.042-.002-.083-.009-.124l-.5-2.099c-.035-.045-.084-.076-.139-.09-.042-.003-.085 0-.125.011l-.057.018c-.319.049-.642.07-.965.063-1.293 0-1.344-.86-1.344-2.979v-3.24h2.794c.022.002.044-.001.065-.009.02-.008.039-.02.055-.035.016-.016.028-.035.035-.056.008-.021.011-.043.009-.065V12.92c.002-.022-.001-.044-.009-.065-.007-.021-.019-.04-.035-.056-.016-.015-.035-.028-.055-.035-.021-.008-.043-.011-.065-.009h-2.794V7.677c.002-.022-.002-.044-.009-.065-.008-.021-.02-.04-.036-.056-.015-.015-.034-.027-.055-.035-.021-.008-.043-.011-.065-.009h-2.683c-.022-.002-.044.001-.065.009-.021.008-.04.02-.055.035-.016.016-.028.035-.036.056-.007.021-.01.043-.009.065v5.084h-1.496c-.022-.002-.045.001-.065.008-.021.008-.04.02-.056.036-.016.015-.028.034-.036.055-.007.021-.01.043-.008.065v2.39c-.001.022.002.044.009.065.008.02.02.039.036.055.015.016.034.028.055.035.02.008.043.011.065.01h1.496v3.904c-.005 4.104 1.557 4.942 3.903 4.942ZM135.04 9.507c0 .005 0 .009 0 0Zc.004.018.006.022 0 0Zc.013.029.016.031 0 0Zc.025.034.03.035 0 0Zl.391.034c.005.001.009 0 .014-.001.005-.002.008-.004.012-.007.003-.004.006-.008.007-.012.002-.004.003-.009.003-.014v-.469h.149l.234.469c.003.01.008.019.016.025.009.006.019.01.029.009h.344c.009 0 .017-.003.024-.01.006-.006.01-.015.01-.024l-.301-.508c.089-.044.164-.112.216-.197.051-.084.078-.182.076-.282 0-.294-.127-.582-.652-.582h-.536c-.024 0-.034.011-.034.034l-.002 1.535Zm.618-1.162c.098 0 .178.023.178.15s-.082.142-.178.142h-.179v-.292h.179Z" style="fill:#7A8087;fill-opacity:1" class="fills"/><path d="M134.176 8.785c0 .278.082.548.235.779.153.23.372.41.626.516.255.106.536.133.807.079.27-.054.519-.188.713-.384.195-.197.328-.447.381-.719.054-.272.026-.553-.08-.809-.107-.256-.286-.475-.515-.628-.231-.154-.5-.235-.776-.234-.183 0-.365.036-.533.106-.17.071-.323.174-.452.304s-.232.285-.302.455c-.069.17-.105.352-.104.535Zm1.389-1.137c.224-.001.442.065.629.189.186.125.331.302.418.509.086.207.109.436.066.656-.043.221-.15.423-.308.583-.158.159-.359.268-.579.312-.219.044-.447.022-.653-.063-.207-.086-.384-.231-.509-.418-.124-.186-.191-.406-.191-.631.009-.297.13-.581.34-.792.209-.211.491-.334.787-.345ZM33.468 12.759c-.022-.002-.044.001 0 0Zc-.086.016-.105.028-.121.044-.015.016-.027.034-.035.055-.008.021-.011.043-.009.066v11.252c-.002.022.001.044.009.065.008.021.02.04.035.056.016.015.035.028.056.035.021.008.043.011.065.009h2.683c.022.002.044-.001.065-.009.021-.007.04-.02.055-.035.016-.016.028-.035.036-.056.007-.021.01-.043.008-.065v-5.769c0-1.186.285-2.779 2.753-2.918l.907-.011c.022.002.044-.001.065-.009.021-.007.04-.019.055-.035.016-.016.028-.035.036-.056.007-.021.01-.043.008-.065V12.92c.002-.022-.001-.044-.008-.065-.008-.021-.02-.04-.036-.056-.015-.015-.034-.028-.055-.035-.021-.008-.043-.011-.065-.009l-.895.011c-.922.052-1.967.267-3.246 1.458l-.265.245-.245-1.51c-.073-.179-.144-.2-.228-.2h-1.628ZM99.268 12.759c-.022-.002-.045.001 0 0Zc-.086.016-.105.028-.12.044-.016.016-.029.034-.036.055-.008.021-.011.043-.009.066v11.252c-.002.022.001.044.009.065.007.021.02.04.036.056.015.015.034.028.055.035.02.008.043.011.065.009h2.683c.022.002.044-.001.065-.009.021-.007.04-.02.055-.035.016-.016.028-.035.036-.056.007-.021.01-.043.009-.065v-5.769c0-1.186.284-2.779 2.752-2.918l.907-.011c.022.002.044-.001.065-.009.021-.007.04-.019.055-.035.016-.016.028-.035.036-.056.007-.021.01-.043.009-.065V12.92c.001-.022-.002-.044-.009-.065-.008-.021-.02-.04-.036-.056-.015-.015-.034-.028-.055-.035-.021-.008-.043-.011-.065-.009l-.895.011c-.923.052-1.967.267-3.248 1.458l-.262.245-.246-1.513c-.073-.179-.144-.201-.229-.201l-1.627.004ZM61.377 18.544c-.132-3.559-2.234-5.796-5.473-5.765-3.239.03-5.457 2.608-5.457 5.859s2.388 5.708 5.764 5.731c1.836.011 3.282-.813 4.175-2.119.013-.02.018-.045.014-.069-.004-.024-.016-.046-.036-.061l-1.697-1.319c-.02-.015-.045-.022-.069-.019-.025.003-.048.016-.063.035-.263.328-.596.594-.974.777-.378.183-.792.279-1.212.282-1.305 0-2.411-.921-2.779-2.189h7.614c.039 0 .077-.014.106-.04.029-.027.048-.062.053-.101.035-.333.046-.667.034-1.002Zm-7.87-.863c.036-.64.312-1.244.772-1.69.461-.446 1.072-.702 1.712-.717 1.497-.024 2.358 1.125 2.401 2.407h-4.885ZM32.127 18.544c-.131-3.559-2.233-5.796-5.472-5.765-3.239.03-5.46 2.608-5.46 5.859s2.386 5.708 5.763 5.731c1.835.011 3.283-.813 4.174-2.119.014-.02.02-.045.016-.069-.004-.024-.016-.046-.036-.061l-1.69-1.319c-.02-.015-.045-.022-.069-.019-.025.003-.048.016-.063.035-.264.329-.598.595-.977.778-.379.183-.795.279-1.216.281-1.307 0-2.413-.921-2.781-2.189h7.61c.04.001.078-.014.108-.04.029-.026.048-.062.053-.101.037-.333.05-.667.04-1.002Zm-7.87-.863c.037-.64.313-1.242.772-1.688.46-.446 1.07-.703 1.71-.719 1.497-.024 2.358 1.125 2.401 2.407h-4.883ZM62.26 18.632Zc0-3.224 2.429-5.843 5.835-5.843 2.049 0 3.344.676 4.371 1.791.019.022.03.05.03.078 0 .029-.011.057-.03.078l-1.778 1.913c-.011.012-.023.021-.037.027-.014.006-.03.009-.045.009s-.031-.003-.045-.009c-.014-.006-.027-.015-.037-.027-.68-.698-1.374-1.141-2.451-1.141-1.577 0-2.698 1.394-2.698 3.036v.042c0 1.705 1.099 3.077 2.824 3.077 1.012 0 1.72-.417 2.452-1.091.026-.026.061-.04.098-.04.037 0 .072.014.098.04l1.657 1.677c.025.026.039.061.039.098 0 .037-.014.072-.039.099-1.05 1.141-2.293 1.938-4.449 1.938-3.344 0-5.795-2.572-5.795-5.752Z" style="fill:#7A8087;fill-opacity:1" class="fills"/><path d="M24.534.967c-.255-.303-.573-.547-.932-.714C23.244.086 22.853 0 22.457 0H2.72c-.395 0-.785.086-1.144.252C1.218.418.899.661.644.963s-.442.656-.547 1.038c-.104.381-.125.781-.06 1.171L5.33 29.74c.107.634.435 1.209.927 1.623.491.414 1.113.64 1.756.637h9.168c.642.003 1.264-.223 1.756-.637.491-.414.82-.989.927-1.623l1.073-5.428h-3.11l-.925 4.647H8.283L3.096 3.043h18.993l-.895 4.414h3.084l.851-4.285c.067-.389.048-.787-.054-1.168-.103-.381-.288-.735-.541-1.037Z" style="fill:#7A8087;fill-opacity:1" class="fills"/></g></svg>