<svg width="46.387" xmlns="http://www.w3.org/2000/svg" height="44" style="-webkit-print-color-adjust:exact" fill="none"><path d="M20.331 6.516c.908-2.283 3.72-4.822 8.35-4.905h.818c.271 0 .543.083.905.083V.088c-.511-.069-1.026-.097-1.542-.085-2.359 0-4.992.591-7.082 2.114-1.318.934-2.379 2.186-3.083 3.639-.999 2.368-1.077 4.908-1.077 6.853l.09 21.152c.089 1.59.426 3.157.999 4.643.679 1.42 1.71 2.643 2.995 3.554 2.088 1.44 4.63 2.031 6.899 2.031.545.014 1.091-.014 1.632-.085v-1.523l-.998.171h-.734c-4.54-.086-7.261-2.539-8.076-4.739-.544-1.288-.852-2.663-.908-4.06V23.354h5.9v-1.599h-5.996v-8.977c0-2.454.182-4.399.908-6.262ZM45.293.848c-2.269 0-4.811.592-6.899 2.031-1.284.912-2.315 2.135-2.995 3.554-.999 2.283-1.089 4.737-1.089 6.599v30.965h1.725V23.354h6.081v-1.599h-6.083v-8.723c0-2.368.181-4.231.908-6.008.907-2.199 3.629-4.643 8.075-4.736h.734c.216-.014.432.014.637.083V.848ZM.181 42.474Zc.297.071.603.099.908.085h.734c4.537-.085 7.261-2.539 8.076-4.739.734-1.777.905-3.637.905-6.007V.934h1.713v30.879c0 1.955-.09 4.316-1.089 6.599-.678 1.42-1.71 2.643-2.995 3.553-2.07 1.44-4.62 2.032-6.891 2.032-.516.014-1.031-.015-1.542-.086Z" style="fill:#7A8087" class="fills" xmlns:xlink="http://www.w3.org/1999/xlink"/></svg>