<svg width="157.304" xmlns="http://www.w3.org/2000/svg" height="18" style="-webkit-print-color-adjust:exact" fill="none"><g xmlns:xlink="http://www.w3.org/1999/xlink" xml:space="preserve" style="fill-rule:evenodd;clip-rule:evenodd;stroke-linejoin:round;stroke-miterlimit:2;fill:#7A8087"><path d="M12.126 4.234c-.059.149-3.177 7.865-3.177 7.865S5.804 4.381 5.746 4.234H0c.163.331 6.468 13.122 6.532 13.252h5.074c.064-.133 6.271-12.922 6.43-13.252h-5.91ZM67.025 14.036c-.559.141-1.086.155-1.293.155-1.798 0-3.275-1.339-3.301-3.179 0-1.161.527-2.571 1.915-3.068.573-.206 1.08-.227 1.286-.227.539-.024.944.034 1.172.104.919.275 2.344 1.052 2.375 3.045.031 2.174-1.426 2.983-2.154 3.17Zm5.187-8.638c-1.248-.913-2.8-1.395-4.49-1.395-2.192 0-3.563.596-4.052.854-.368.181-.888.533-1.165.722l-.192.127S62.289.229 62.287 0h-4.962v17.567h4.988v-1.28l.256.157c.855.519 2.285 1.387 4.677 1.387 2.259 0 5.173-.868 6.577-3.305.796-1.377.885-2.992.885-3.624 0-2.352-.889-4.306-2.496-5.504ZM105.706 10.578c0 1.416-.41 2.173-.756 2.56-.832.959-2.486.988-2.673.988-.605 0-2.62-.136-3.121-1.875-.118-.373-.137-.765-.137-1.044 0-.099.001-.183.004-.248l.002-.098V3.935h-4.85v8.409c0 .725.08 1.217.146 1.507.166.779.495 1.339.66 1.619 1.004 1.577 2.719 2.375 5.092 2.375 2.308 0 3.62-.662 4.598-1.306.368-.26.588-.455.918-.75l.259-.231s.027 1.773.029 1.98h5.07V3.935h-5.241v6.643ZM44.255 3.935c-1.675.113-2.92.79-3.7 2.007l-.222.351V4.174H35.37v13.364h4.937v-6.394c0-.847.308-3.618 4.259-3.719h1.502V3.916c-1.319-.018-1.813.019-1.813.019ZM87.529 10.82c0 2.565-2.012 3.156-2.245 3.213-.57.147-1.115.162-1.322.162-1.893 0-3.397-1.449-3.423-3.302 0-1.135.522-2.647 1.993-3.176.567-.203 1.075-.234 1.32-.234.669-.029 1.072.066 1.215.108.73.217 2.43.964 2.462 3.229Zm-.055-6.831V5.83l-.42-.324c-.894-.698-2.009-1.567-4.527-1.567-3.557-.026-5.327 1.898-6.064 3.046-1.029 1.599-1.137 3.327-1.137 3.997 0 1.184.287 2.352.833 3.376.523 1.025 1.506 1.897 1.511 1.901.736.575 2.336 1.537 4.756 1.537 2.067 0 3.441-.728 3.894-.969.302-.147.961-.62.961-.62l.165-.157v1.462h5.61V3.989h-5.582ZM121.719 14.149c-.546.141-1.065.162-1.32.162-1.895 0-3.4-1.452-3.423-3.302 0-1.138.52-2.649 1.992-3.177.567-.203 1.073-.234 1.32-.234.665-.03 1.071.066 1.215.108.727.219 2.429.963 2.462 3.159.034 2.624-2.014 3.223-2.246 3.284ZM123.95.001v5.903l-.417-.327c-.895-.697-2.009-1.566-4.526-1.566-3.559-.025-5.329 1.898-6.065 3.047-1.029 1.597-1.138 3.328-1.138 3.997 0 1.185.287 2.349.832 3.376.556 1.091 1.202 1.64 1.512 1.901.736.575 2.337 1.539 4.754 1.539 2.067 0 3.44-.729 3.895-.972.306-.148.483-.276.962-.62l.191-.139v1.428h5.393V.001h-5.393ZM53.898 13.176c-.049-.152-.082-.362-.082-.544V7.426s1.669-.001 1.883 0v-3.51H53.79V.371h-4.988c-.004.216 0 3.549 0 3.549h-1.674v3.512h1.66l-.176 7.044c-.025 1.021.102 1.542.488 1.99.547.647 1.474.837 1.847.893.572.064 1.198.097 1.916.097h3.162v-3.545h-.6c-.772 0-1.33-.125-1.527-.735ZM155.178 13.176c-.051-.152-.082-.362-.082-.544V7.426s1.67-.001 1.88 0v-3.51h-1.909V.371h-4.987c-.005.216 0 3.549 0 3.549h-1.672v3.512h1.659l-.174 7.044c-.028 1.021.099 1.542.485 1.99.547.647 1.474.837 1.85.893.57.064 1.195.097 1.911.097h3.165v-3.545h-.598c-.775 0-1.332-.125-1.528-.735ZM135.648 9.421c.525-2.512 3.901-2.355 3.901-2.355 2.473-.053 3.567 1.447 3.9 2.355h-7.801Zm12.915-.094c-.374-1.351-1.101-2.245-1.619-2.8-1.712-1.85-4.241-2.866-7.117-2.866-3.812-.027-5.581.757-7.067 1.935-.266.213-.759.681-1.272 1.3-1.102 1.371-1.334 2.898-1.334 3.938 0 1.591.454 2.911 1.384 4.034 1.653 1.978 4.36 2.982 8.048 2.982.945 0 3.4-.114 5.699-1.198.606-.296 1.11-.641 1.289-.794.937-.694 1.57-1.644 1.964-2.38h-5.346c-.003.002-.006.006-.006.006l-.539.47c-.269.201-1.399.765-2.997.757-.313-.002-3.078-.072-4.037-2.062-.205-.433-.275-.789-.291-.888l-.023-.139h13.538c-.025-.767-.054-1.499-.274-2.295ZM21.454 9.689l.03-.142c.542-2.583 3.99-2.453 4.017-2.449 2.284-.051 3.573 1.221 4.018 2.431l.06.16h-8.125Zm13.062-.214c-.414-1.506-1.286-2.445-1.615-2.8-1.717-1.849-4.247-2.866-7.121-2.866-3.81-.025-5.58.756-7.066 1.937-.267.211-.76.679-1.269 1.301-1.106 1.37-1.336 2.896-1.336 3.936 0 1.591.451 2.91 1.384 4.035C19.145 16.996 21.853 18 25.539 18c.947 0 3.402-.116 5.699-1.198.606-.298 1.112-.641 1.292-.796.752-.555 1.423-1.38 1.959-2.378h-5.343c-.003.004-.008.009-.008.009l-.535.466c-.269.2-1.398.765-2.997.756-.312 0-3.079-.072-4.037-2.063-.204-.429-.274-.786-.291-.887l-.024-.138h13.538c-.022-.771-.054-1.507-.276-2.296Z" style="fill-rule:nonzero;fill:#7A8087;fill-opacity:1" class="fills"/></g></svg>