<svg width="118.393" xmlns="http://www.w3.org/2000/svg" height="29" viewBox="-0.5 -0.5 118.393 29" style="-webkit-print-color-adjust:exact" fill="none"><g xmlns:xlink="http://www.w3.org/1999/xlink" style="fill:#7A8087"><path d="M22.094 7.544c-1.176 3.627-2.308 6.859-3.088 8.701l-.019-.015c-.061-.046-.124-.094-.188-.144l-.059-.045c-.07-.055-.142-.112-.217-.171l-.036-.03c-.065-.05-.132-.106-.198-.16l-.067-.054c-.077-.064-.156-.13-.236-.197l-.045-.037c-.069-.059-.14-.12-.212-.182l-.067-.057c-.084-.073-.168-.147-.254-.223l-.051-.044c-.074-.066-.15-.134-.225-.201-.023-.02-.045-.04-.067-.06-.089-.081-.178-.164-.269-.248l-.015-.014c.615-.757 1.179-1.554 1.688-2.387l.025-.042c.037-.061.074-.123.11-.185.05-.087.1-.173.146-.258.876-1.577 1.23-2.862 1.325-3.862v-.023c0-.019.003-.038.004-.057l.008-.098c0-.03.003-.061.005-.092.001-.03.003-.068.005-.1 0-.068.004-.137.004-.204 0-2.858-1.253-4.542-2.303-5.451C16.614.585 15.109.017 13.547 0h-.026c-.045 0-.09 0-.136.003-.045.003-.093 0-.14.004-.047.004-.098.007-.147.011-.049.003-.094.005-.141.01-.047.004-.098.011-.147.017-.048.005-.094.01-.14.017-.047.006-.096.015-.145.023-.049.008-.095.015-.141.023-.047.009-.095.021-.142.03-.047.01-.095.019-.142.03-.047.011-.094.024-.14.036-.047.012-.095.023-.142.037-.046.013-.091.027-.136.041-.046.013-.095.028-.143.043-.047.015-.088.031-.133.047-.044.015-.094.032-.141.05-.047.017-.087.034-.13.05-.043.016-.094.037-.141.057-.047.02-.085.038-.128.057-.043.02-.092.041-.137.063-.045.021-.084.042-.125.063-.042.021-.091.044-.135.068-.045.024-.08.045-.121.068-.04.022-.09.05-.134.075-.044.025-.078.05-.116.073-.039.022-.088.053-.132.081-.043.028-.076.053-.115.079-.039.026-.084.056-.125.085-.04.029-.085.064-.128.097-.035.026-.07.05-.104.078-.076.06-.151.122-.225.186-1.05.909-2.302 2.593-2.302 5.451 0 .067 0 .136.004.204 0 .034.003.068.005.1s.003.062.005.092.005.066.007.098c0 .02.003.038.005.057v.023c.1 1.054.489 2.428 1.474 4.126.035.058.069.116.104.175l.033.054c.51.829 1.074 1.623 1.69 2.377l-.014.012c-.092.086-.183.17-.274.251l-.058.051c-.081.073-.161.144-.239.214-.013.012-.026.024-.039.035-.088.078-.175.154-.262.229l-.056.05c-.078.067-.154.132-.23.196-.01.009-.02.018-.03.026-.083.07-.164.138-.245.204l-.054.044c-.072.059-.144.117-.214.173l-.025.02c-.076.06-.151.118-.221.174l-.057.044c-.062.049-.124.096-.184.141l-.023.019c-.781-1.843-1.91-5.075-3.088-8.701H0c.305.961.628 1.963.958 2.962.941 2.851 1.754 5.133 2.418 6.781.423 1.054.787 1.851 1.11 2.442.309.568 1.13 2.064 2.788 2.064.789 0 1.709-.295 3.619-1.737.136-.103.275-.21.415-.32l.112-.089c.122-.096.243-.194.366-.294l.063-.05c.14-.116.282-.235.424-.356l.106-.09c.118-.101.235-.204.352-.309l.09-.079c.143-.126.284-.254.426-.383l.092-.086c.065-.059.13-.12.194-.18.064.059.128.12.193.179l.095.088c.14.128.281.255.422.38l.1.086c.115.101.23.201.345.302l.113.096c.141.12.281.238.421.352.022.019.045.037.067.055.121.099.241.195.36.29l.115.091c.14.109.278.216.414.319 1.914 1.442 2.831 1.737 3.619 1.737 1.658 0 2.479-1.498 2.788-2.062.324-.591.687-1.389 1.111-2.442.663-1.648 1.477-3.929 2.417-6.78.33-1 .654-2.002.958-2.963l-4.977-.001Zm-6.741-.371Zc-.006.075-.011.116-.017.159v.015c-.008.047-.017.097-.028.15-.002.013-.005.027-.008.04v.009c-.01.042-.02.085-.032.128 0 .01-.005.018-.008.028-.015.055-.032.112-.05.171-.004.014-.009.028-.014.042-.017.05-.035.1-.054.153-.004.013-.009.025-.014.038-.023.063-.05.128-.076.194-.006.013-.012.027-.018.04-.023.058-.05.115-.076.174l-.021.047c-.033.071-.067.142-.104.216l-.018.036c-.033.064-.067.13-.101.197l-.03.054c-.042.078-.086.158-.133.239l-.013.023c-.044.074-.089.151-.137.228-.012.02-.024.04-.037.061-.105.17-.22.347-.343.529l-.047.067c-.058.086-.119.172-.182.26l-.015.021c-.068.094-.138.19-.211.288-.008.01-.015.02-.022.03-.008-.01-.015-.02-.023-.03-.072-.098-.143-.194-.211-.288l-.015-.021c-.063-.088-.123-.174-.182-.26l-.046-.067c-.125-.182-.239-.358-.345-.529-.012-.021-.024-.041-.037-.061-.046-.077-.092-.151-.135-.228l-.013-.023c-.048-.081-.092-.161-.134-.239l-.03-.054c-.035-.067-.07-.133-.1-.197l-.018-.036c-.038-.074-.072-.145-.104-.216-.008-.016-.015-.031-.022-.047-.027-.059-.052-.116-.076-.174l-.018-.04c-.027-.066-.052-.131-.076-.194-.005-.013-.009-.025-.014-.038-.02-.05-.037-.103-.054-.153l-.014-.042c-.018-.059-.036-.116-.05-.171l-.007-.028c-.012-.043-.022-.086-.032-.128v-.009c-.003-.013-.006-.027-.008-.04-.011-.05-.02-.1-.028-.15v-.015c-.006-.043-.011-.084-.015-.124 0-.012 0-.024-.003-.035-.003-.044-.005-.086-.005-.125 0-.069 0-.136.004-.201 0-.023.003-.044.005-.066 0-.041.004-.082.008-.122 0-.025.006-.05.009-.072.004-.035.007-.07.012-.104.003-.024.008-.047.012-.071.005-.031.01-.063.016-.094.006-.03.01-.046.015-.069.006-.023.012-.058.019-.085.007-.027.013-.044.02-.066.006-.023.014-.051.022-.078.008-.027.014-.042.021-.063.007-.021.017-.05.025-.071.009-.02.017-.039.025-.059.008-.02.018-.044.028-.065.01-.021.018-.037.027-.056.009-.018.02-.04.03-.059.01-.019.02-.035.03-.051.01-.015.021-.037.032-.054.011-.018.021-.032.031-.047.011-.016.023-.035.035-.051.011-.016.021-.029.033-.043.011-.014.023-.032.035-.047l.035-.039c.013-.014.025-.029.037-.042l.036-.037c.013-.013.026-.026.039-.038l.037-.033.039-.033c.012-.011.025-.021.038-.031.013-.009.026-.021.039-.03l.039-.027.04-.027c.013-.009.026-.016.039-.024l.04-.024c.013-.008.026-.014.039-.021l.04-.021.039-.019.04-.018.038-.017.039-.015.038-.014.038-.014.037-.011.037-.011.035-.01.036-.009.034-.008.034-.008.033-.007.032-.006.031-.005.03-.004.028-.004.028-.003.026-.003H13.688l.026.003.028.003.029.004.03.004.031.005.032.006.032.007.035.008.034.008.035.009.036.01.037.011.037.011.038.014.038.014.039.015.038.017.04.018.039.019.039.021.04.021.04.024c.013.008.026.015.038.024l.041.027.038.027c.013.009.026.02.04.03.013.011.025.02.038.031l.039.033.037.033c.013.012.026.025.038.038l.037.037c.012.013.024.028.037.042l.034.039c.012.015.024.031.036.047.012.015.023.028.033.043.011.016.023.033.034.051.011.017.022.031.032.047.01.016.021.036.032.054l.03.051c.01.019.019.04.03.059.01.02.018.037.027.056.008.019.018.043.028.065.009.022.016.039.024.059.008.02.017.047.025.071.008.024.016.042.022.063.007.022.015.05.022.078.007.027.013.043.019.066.006.023.013.057.019.085.007.029.012.045.016.069.005.025.011.063.016.094.004.024.009.047.012.071.005.034.008.069.012.104.003.024.006.05.009.072.003.04.005.081.008.122 0 .022.003.043.004.066.003.064.004.13.004.201 0 .039 0 .081-.019.125Z" style="fill:#7A8087;fill-opacity:1" class="fills"/><g class="strokes"><path d="M22.094 7.544c-1.176 3.627-2.308 6.859-3.088 8.701l-.019-.015c-.061-.046-.124-.094-.188-.144l-.059-.045c-.07-.055-.142-.112-.217-.171l-.036-.03c-.065-.05-.132-.106-.198-.16l-.067-.054c-.077-.064-.156-.13-.236-.197l-.045-.037c-.069-.059-.14-.12-.212-.182l-.067-.057c-.084-.073-.168-.147-.254-.223l-.051-.044c-.074-.066-.15-.134-.225-.201-.023-.02-.045-.04-.067-.06-.089-.081-.178-.164-.269-.248l-.015-.014c.615-.757 1.179-1.554 1.688-2.387l.025-.042c.037-.061.074-.123.11-.185.05-.087.1-.173.146-.258.876-1.577 1.23-2.862 1.325-3.862v-.023c0-.019.003-.038.004-.057l.008-.098c0-.03.003-.061.005-.092.001-.03.003-.068.005-.1 0-.068.004-.137.004-.204 0-2.858-1.253-4.542-2.303-5.451C16.614.585 15.109.017 13.547 0h-.026c-.045 0-.09 0-.136.003-.045.003-.093 0-.14.004-.047.004-.098.007-.147.011-.049.003-.094.005-.141.01-.047.004-.098.011-.147.017-.048.005-.094.01-.14.017-.047.006-.096.015-.145.023-.049.008-.095.015-.141.023-.047.009-.095.021-.142.03-.047.01-.095.019-.142.03-.047.011-.094.024-.14.036-.047.012-.095.023-.142.037-.046.013-.091.027-.136.041-.046.013-.095.028-.143.043-.047.015-.088.031-.133.047-.044.015-.094.032-.141.05-.047.017-.087.034-.13.05-.043.016-.094.037-.141.057-.047.02-.085.038-.128.057-.043.02-.092.041-.137.063-.045.021-.084.042-.125.063-.042.021-.091.044-.135.068-.045.024-.08.045-.121.068-.04.022-.09.05-.134.075-.044.025-.078.05-.116.073-.039.022-.088.053-.132.081-.043.028-.076.053-.115.079-.039.026-.084.056-.125.085-.04.029-.085.064-.128.097-.035.026-.07.05-.104.078-.076.06-.151.122-.225.186-1.05.909-2.302 2.593-2.302 5.451 0 .067 0 .136.004.204 0 .034.003.068.005.1s.003.062.005.092.005.066.007.098c0 .02.003.038.005.057v.023c.1 1.054.489 2.428 1.474 4.126.035.058.069.116.104.175l.033.054c.51.829 1.074 1.623 1.69 2.377l-.014.012c-.092.086-.183.17-.274.251l-.058.051c-.081.073-.161.144-.239.214-.013.012-.026.024-.039.035-.088.078-.175.154-.262.229l-.056.05c-.078.067-.154.132-.23.196-.01.009-.02.018-.03.026-.083.07-.164.138-.245.204l-.054.044c-.072.059-.144.117-.214.173l-.025.02c-.076.06-.151.118-.221.174l-.057.044c-.062.049-.124.096-.184.141l-.023.019c-.781-1.843-1.91-5.075-3.088-8.701H0c.305.961.628 1.963.958 2.962.941 2.851 1.754 5.133 2.418 6.781.423 1.054.787 1.851 1.11 2.442.309.568 1.13 2.064 2.788 2.064.789 0 1.709-.295 3.619-1.737.136-.103.275-.21.415-.32l.112-.089c.122-.096.243-.194.366-.294l.063-.05c.14-.116.282-.235.424-.356l.106-.09c.118-.101.235-.204.352-.309l.09-.079c.143-.126.284-.254.426-.383l.092-.086c.065-.059.13-.12.194-.18.064.059.128.12.193.179l.095.088c.14.128.281.255.422.38l.1.086c.115.101.23.201.345.302l.113.096c.141.12.281.238.421.352.022.019.045.037.067.055.121.099.241.195.36.29l.115.091c.14.109.278.216.414.319 1.914 1.442 2.831 1.737 3.619 1.737 1.658 0 2.479-1.498 2.788-2.062.324-.591.687-1.389 1.111-2.442.663-1.648 1.477-3.929 2.417-6.78.33-1 .654-2.002.958-2.963l-4.977-.001Zm-6.741-.371Zc-.006.075-.011.116-.017.159v.015c-.008.047-.017.097-.028.15-.002.013-.005.027-.008.04v.009c-.01.042-.02.085-.032.128 0 .01-.005.018-.008.028-.015.055-.032.112-.05.171-.004.014-.009.028-.014.042-.017.05-.035.1-.054.153-.004.013-.009.025-.014.038-.023.063-.05.128-.076.194-.006.013-.012.027-.018.04-.023.058-.05.115-.076.174l-.021.047c-.033.071-.067.142-.104.216l-.018.036c-.033.064-.067.13-.101.197l-.03.054c-.042.078-.086.158-.133.239l-.013.023c-.044.074-.089.151-.137.228-.012.02-.024.04-.037.061-.105.17-.22.347-.343.529l-.047.067c-.058.086-.119.172-.182.26l-.015.021c-.068.094-.138.19-.211.288-.008.01-.015.02-.022.03-.008-.01-.015-.02-.023-.03-.072-.098-.143-.194-.211-.288l-.015-.021c-.063-.088-.123-.174-.182-.26l-.046-.067c-.125-.182-.239-.358-.345-.529-.012-.021-.024-.041-.037-.061-.046-.077-.092-.151-.135-.228l-.013-.023c-.048-.081-.092-.161-.134-.239l-.03-.054c-.035-.067-.07-.133-.1-.197l-.018-.036c-.038-.074-.072-.145-.104-.216-.008-.016-.015-.031-.022-.047-.027-.059-.052-.116-.076-.174l-.018-.04c-.027-.066-.052-.131-.076-.194-.005-.013-.009-.025-.014-.038-.02-.05-.037-.103-.054-.153l-.014-.042c-.018-.059-.036-.116-.05-.171l-.007-.028c-.012-.043-.022-.086-.032-.128v-.009c-.003-.013-.006-.027-.008-.04-.011-.05-.02-.1-.028-.15v-.015c-.006-.043-.011-.084-.015-.124 0-.012 0-.024-.003-.035-.003-.044-.005-.086-.005-.125 0-.069 0-.136.004-.201 0-.023.003-.044.005-.066 0-.041.004-.082.008-.122 0-.025.006-.05.009-.072.004-.035.007-.07.012-.104.003-.024.008-.047.012-.071.005-.031.01-.063.016-.094.006-.03.01-.046.015-.069.006-.023.012-.058.019-.085.007-.027.013-.044.02-.066.006-.023.014-.051.022-.078.008-.027.014-.042.021-.063.007-.021.017-.05.025-.071.009-.02.017-.039.025-.059.008-.02.018-.044.028-.065.01-.021.018-.037.027-.056.009-.018.02-.04.03-.059.01-.019.02-.035.03-.051.01-.015.021-.037.032-.054.011-.018.021-.032.031-.047.011-.016.023-.035.035-.051.011-.016.021-.029.033-.043.011-.014.023-.032.035-.047l.035-.039c.013-.014.025-.029.037-.042l.036-.037c.013-.013.026-.026.039-.038l.037-.033.039-.033c.012-.011.025-.021.038-.031.013-.009.026-.021.039-.03l.039-.027.04-.027c.013-.009.026-.016.039-.024l.04-.024c.013-.008.026-.014.039-.021l.04-.021.039-.019.04-.018.038-.017.039-.015.038-.014.038-.014.037-.011.037-.011.035-.01.036-.009.034-.008.034-.008.033-.007.032-.006.031-.005.03-.004.028-.004.028-.003.026-.003H13.688l.026.003.028.003.029.004.03.004.031.005.032.006.032.007.035.008.034.008.035.009.036.01.037.011.037.011.038.014.038.014.039.015.038.017.04.018.039.019.039.021.04.021.04.024c.013.008.026.015.038.024l.041.027.038.027c.013.009.026.02.04.03.013.011.025.02.038.031l.039.033.037.033c.013.012.026.025.038.038l.037.037c.012.013.024.028.037.042l.034.039c.012.015.024.031.036.047.012.015.023.028.033.043.011.016.023.033.034.051.011.017.022.031.032.047.01.016.021.036.032.054l.03.051c.01.019.019.04.03.059.01.02.018.037.027.056.008.019.018.043.028.065.009.022.016.039.024.059.008.02.017.047.025.071.008.024.016.042.022.063.007.022.015.05.022.078.007.027.013.043.019.066.006.023.013.057.019.085.007.029.012.045.016.069.005.025.011.063.016.094.004.024.009.047.012.071.005.034.008.069.012.104.003.024.006.05.009.072.003.04.005.081.008.122 0 .022.003.043.004.066.003.064.004.13.004.201 0 .039 0 .081-.019.125Z" style="fill:none;stroke-width:1" class="stroke-shape"/></g><path d="M31.246 14.648c0 4.254 2.784 7.397 6.575 7.397 1.999 0 3.376-.785 4.191-1.793l.15 1.497h4.517V7.518h-4.517l-.15 1.498c-.815-.994-2.192-1.794-4.191-1.794-3.791 0-6.575 3.173-6.575 7.426Zm7.685-3.275c1.807.015 3.066 1.349 3.066 3.276 0 1.927-1.259 3.277-3.066 3.277s-3.065-1.35-3.065-3.277 1.259-3.276 3.065-3.276Z" style="fill:#7A8087;fill-opacity:1" class="fills"/><g class="strokes"><path d="M31.246 14.648c0 4.254 2.784 7.397 6.575 7.397 1.999 0 3.376-.785 4.191-1.793l.15 1.497h4.517V7.518h-4.517l-.15 1.498c-.815-.994-2.192-1.794-4.191-1.794-3.791 0-6.575 3.173-6.575 7.426Zm7.685-3.275c1.807.015 3.066 1.349 3.066 3.276 0 1.927-1.259 3.277-3.066 3.277s-3.065-1.35-3.065-3.277 1.259-3.276 3.065-3.276Z" style="fill:none;stroke-width:1" class="stroke-shape"/></g><path d="M54.281 13.853c0-1.591 1.209-2.35 2.384-2.35 1.132 0 2.398.759 2.398 2.35v7.939h4.693v-9.278c0-3.404-2.592-5.292-5.287-5.292-1.683 0-3.411.52-4.424 1.799l-.151-1.502h-4.306V21.79h4.693v-7.937Z" style="fill:#7A8087;fill-opacity:1" class="fills"/><g class="strokes"><path d="M54.281 13.853c0-1.591 1.209-2.35 2.384-2.35 1.132 0 2.398.759 2.398 2.35v7.939h4.693v-9.278c0-3.404-2.592-5.292-5.287-5.292-1.683 0-3.411.52-4.424 1.799l-.151-1.502h-4.306V21.79h4.693v-7.937Z" style="fill:none;stroke-width:1" class="stroke-shape"/></g><path d="M67.837 23.955c-.533 0-1.095-.134-1.656-.387l-.636 3.689c.991.49 2.04.743 3.06.743 2.616 0 4.893-1.307 6.031-4.15l6.577-16.375h-5.202l-2.927 9.548-3.001-9.548h-5.188L70.6 21.768c-.413 1.458-1.492 2.187-2.763 2.187Z" style="fill:#7A8087;fill-opacity:1" class="fills"/><g class="strokes"><path d="M67.837 23.955c-.533 0-1.095-.134-1.656-.387l-.636 3.689c.991.49 2.04.743 3.06.743 2.616 0 4.893-1.307 6.031-4.15l6.577-16.375h-5.202l-2.927 9.548-3.001-9.548h-5.188L70.6 21.768c-.413 1.458-1.492 2.187-2.763 2.187Z" style="fill:none;stroke-width:1" class="stroke-shape"/></g><path d="m91.489 21.792 2.177-7.173 2.193 7.173h5.451l4.192-14.317h-4.755L98.258 16.9l-2.755-9.141h-3.659L89.075 16.9l-2.474-9.425h-4.755l4.192 14.317Z" style="fill:#7A8087;fill-opacity:1" class="fills"/><g class="strokes"><path d="m91.489 21.792 2.177-7.173 2.193 7.173h5.451l4.192-14.317h-4.755L98.258 16.9l-2.755-9.141h-3.659L89.075 16.9l-2.474-9.425h-4.755l4.192 14.317Z" style="fill:none;stroke-width:1" class="stroke-shape"/></g><path d="M112.064 14.924c0-2.664 1.495-3.628 3.256-3.628.611.002 1.216.108 1.791.312l.282-4.088c-.558-.191-1.143-.291-1.732-.298-1.643 0-3.049.832-3.715 2.245l-.15-1.947h-4.397v14.272h4.665v-6.868Z" style="fill:#7A8087;fill-opacity:1" class="fills"/><g class="strokes"><path d="M112.064 14.924c0-2.664 1.495-3.628 3.256-3.628.611.002 1.216.108 1.791.312l.282-4.088c-.558-.191-1.143-.291-1.732-.298-1.643 0-3.049.832-3.715 2.245l-.15-1.947h-4.397v14.272h4.665v-6.868Z" style="fill:none;stroke-width:1" class="stroke-shape"/></g></g></svg>