<svg viewBox="0 0 200 200" xmlns="http://www.w3.org/2000/svg" xml:space="preserve" style="fill-rule:evenodd;clip-rule:evenodd;stroke-linejoin:round;stroke-miterlimit:2"><path d="M20.286.103c-.367 0-.663.293-.663.652v13.918h-.002c0 .36.298.652.664.652h1.812c.367 0 .663-.293.663-.652v-3.06c0-.36.298-.651.664-.651h8.593l2.666 4.062c.121.185.331.297.556.297h2.156c.524 0 .84-.571.556-1.004l-2.654-4.047c1.7-.934 2.849-2.722 2.837-4.769C38.117 2.532 35.513.103 32.49.103H20.286Zm2.475 3.085h9.765c1.2 0 2.276.834 2.447 1.999.212 1.446-.931 2.693-2.362 2.693H22.76h.001V3.188Z" style="fill:#fff;fill-rule:nonzero" transform="translate(-102.78 45.8319) scale(7.02206)"/></svg>