<svg width="200" height="200" viewBox="0 0 200 200" fill="none" xmlns="http://www.w3.org/2000/svg">
<path d="M100 171.99C90.88 171.99 84 159.521 84 142.992C83.85 136.252 85.01 126.873 94.98 113.994C92.3365 110.428 89.5348 106.957 86.66 103.575C77.34 124.633 62.46 136.992 46 136.992C31.66 136.992 20 125.333 20 110.994C20 96.6552 31.66 84.996 46 84.996C54.82 84.996 62 92.1755 62 100.995C62 109.814 54.82 116.994 46 116.994C43.79 116.994 42 115.204 42 112.994C42 110.784 43.79 108.994 46 108.994C50.41 108.994 54 105.405 54 100.995C54 96.5852 50.41 92.9955 46 92.9955C36.07 92.9955 28 101.065 28 110.994C28 120.924 36.07 128.993 46 128.993C59.87 128.993 73.13 116.604 80.94 96.4952C71.97 85.036 64 72.3069 64 56.988C64 40.4691 70.88 28 80 28C89.12 28 95.94 40.3791 96 56.788C95.97 70.1971 93.89 83.3562 89.98 95.0054C91.1 96.3853 92.21 97.7352 93.32 99.0851C95.66 101.925 97.91 104.655 100 107.374C102.09 104.665 104.34 101.925 106.68 99.0851C107.78 97.7452 108.9 96.3853 110.02 95.0153C106.11 83.3662 104.04 70.2071 104 56.818C104.06 40.3791 110.94 28.01 120 28.01C129.06 28.01 136 40.4791 136 57.008C136 72.3169 128.03 85.046 119.06 96.5152C126.87 116.614 140.13 129.013 154 129.013C163.92 129.013 172 120.934 172 111.014C172 101.095 163.92 93.0155 154 93.0155C149.59 93.0155 146 96.6052 146 101.015C146 105.425 149.59 109.014 154 109.014C156.21 109.014 158 110.804 158 113.014C158 115.224 156.21 117.014 154 117.014C145.18 117.014 138 109.834 138 101.015C138 92.1955 145.18 85.016 154 85.016C168.34 85.016 180 96.6752 180 111.014C180 125.353 168.34 137.012 154 137.012C137.54 137.012 122.66 124.653 113.34 103.595C110.562 107.067 107.665 110.436 105.02 114.014C114.99 126.883 116.15 136.272 116 143.092C116 159.531 109.12 172 100 172V171.99ZM100 120.634C91.76 131.983 91.92 139.222 92 142.902C92 155.611 96.82 163.991 100 163.991C103.18 163.991 108 155.611 108 142.992C108.08 139.242 108.25 131.993 100 120.634ZM80 35.9994C76.81 35.9994 72 44.3789 72 56.998C72 68.1472 77.33 78.1065 83.98 87.2659C86.59 77.7665 87.97 67.3673 88 56.798C87.95 44.3089 83.15 35.9994 80 35.9994ZM120 35.9994C116.85 35.9994 112.05 44.2989 112 56.818C112.03 67.3773 113.4 77.7665 116.02 87.2659C122.67 78.1065 128 68.1472 128 56.998C128 44.3789 123.18 35.9994 120 35.9994Z" fill="white"/>
</svg>
