<svg width="200" height="200" viewBox="0 0 200 200" fill="none" xmlns="http://www.w3.org/2000/svg">
<path d="M174.802 137.139H25.3171C25.1982 137.02 25.1189 136.901 25 136.782C25.3171 136.624 25.6729 136.544 25.9107 136.308C36.2854 126.051 46.6215 115.795 56.9565 105.579L93.2683 69.6229C95.3672 67.524 97.5058 65.5044 99.6037 63.3658C100.278 62.6929 100.633 62.6929 101.307 63.3658C113.107 75.2458 124.987 87.0862 136.827 98.9255C149.301 111.4 161.735 123.874 174.208 136.308C174.446 136.544 174.723 136.743 175 136.941C174.921 137.02 174.881 137.099 174.802 137.139Z" fill="white"/>
</svg>
