<svg width="200" height="200" viewBox="0 0 200 200" fill="none" xmlns="http://www.w3.org/2000/svg">
<path d="M148.579 38.9154C147.541 37.6853 146.246 36.7002 144.788 36.0226C143.328 35.3475 141.74 34.9975 140.133 35H59.8295C58.2218 35 56.6341 35.3475 55.1765 36.0251C53.7188 36.7002 52.4262 37.6853 51.3886 38.9129C50.351 40.138 49.5934 41.5757 49.1684 43.1259C48.7433 44.676 48.6633 46.2987 48.9308 47.8839L70.3806 155.818C70.8181 158.388 72.1533 160.723 74.1485 162.406C76.1437 164.086 78.6689 165.006 81.2792 165.001H118.576C121.183 165.006 123.706 164.086 125.701 162.403C127.694 160.721 129.027 158.388 129.462 155.818L151.071 47.9364C151.336 46.3537 151.256 44.731 150.831 43.1834C150.409 41.6332 149.654 40.1956 148.619 38.9679L148.579 38.9154ZM117.555 152.652H82.5118L61.3971 47.3613H138.658L117.555 152.652Z" fill="#FFED50"/>
</svg>
